<?xml version="1.0" encoding="UTF-8" standalone="no"?>
<svg
   xmlns:dc="http://purl.org/dc/elements/1.1/"
   xmlns:cc="http://creativecommons.org/ns#"
   xmlns:rdf="http://www.w3.org/1999/02/22-rdf-syntax-ns#"
   xmlns:svg="http://www.w3.org/2000/svg"
   xmlns="http://www.w3.org/2000/svg"
   id="svg10603"
   version="1.1"
   viewBox="0 0 541.86665 541.86669"
   height="2048"
   width="2048">
  <defs
     id="defs10597" />
  <metadata
     id="metadata10600">
    <rdf:RDF>
      <cc:Work
         rdf:about="">
        <dc:format>image/svg+xml</dc:format>
        <dc:type
           rdf:resource="http://purl.org/dc/dcmitype/StillImage" />
        <dc:title></dc:title>
      </cc:Work>
    </rdf:RDF>
  </metadata>
  <g
     id="g15582">
    <path
       style="fill:#e6e6e6;fill-opacity:1;stroke-width:2.22473216"
       d="m 48.295794,489.41828 -16.84981,-14.92197 0.920429,-24.47205 C 33.587457,417.55955 27.812562,391.79533 15.021237,372.64016 5.4135493,358.25253 4.4727826,353.25687 9.5410043,343.539 c 4.3627297,-8.36515 4.1973807,-12.41476 -1.073281,-26.28601 -2.41817,-6.36411 -4.1701467,-11.73085 -3.8932807,-11.9261 2.0071357,-1.41542 40.2097964,-9.88949 41.0038724,-9.09541 0.553889,0.55389 -2.00365,7.8408 -5.683421,16.19311 -3.679772,8.35231 -6.307514,15.56901 -5.839426,16.03711 0.468088,0.46809 4.966541,-2.40845 9.996562,-6.3923 5.055004,-4.00365 9.931047,-6.36246 10.901829,-5.27384 2.085896,2.33909 13.914841,61.28049 12.568562,62.62676 -0.510678,0.51069 -7.563186,-2.7818 -15.672239,-7.31665 -8.109056,-4.53485 -15.11051,-7.8784 -15.55879,-7.43011 -2.168244,2.16824 11.775846,26.11753 19.987784,34.32946 16.407091,16.40708 38.09972,18.72354 58.312514,6.22693 14.29525,-8.83806 20.63298,-18.70067 20.63298,-32.10849 0,-9.65039 -0.67976,-11.03333 -7.49298,-15.24413 -9.40447,-5.81229 -12.64574,-5.78686 -29.426607,0.23077 -11.777624,4.22346 -14.457361,4.49085 -20.387928,2.03434 -14.804961,-6.13242 -13.717109,-23.24023 2.376317,-37.37044 8.651307,-7.59595 22.639148,-11.06092 35.939278,-8.9026 7.45499,1.20977 7.45744,1.20714 5.43857,-5.83225 -3.56685,-12.43687 -2.32381,-37.33307 2.38159,-47.69967 l 4.30364,-9.48149 -4.90869,2.58906 c -9.1075,4.80371 -30.237044,19.69044 -43.198948,30.43563 -16.667622,13.81719 -19.07987,14.60928 -25.070598,8.23244 l -4.879118,-5.19357 21.460831,-16.54789 C 121.06766,232.35381 185.60905,203.09987 223.91543,201.40792 l 12.53455,-0.55364 7.08954,14.41073 c 3.89922,7.9259 8.31909,20.59674 9.82192,28.15742 2.34812,11.81335 3.17249,13.30661 5.86159,10.61751 6.78388,-6.78387 17.92027,-1.05713 15.11741,7.77391 -1.69373,5.33644 -9.56307,8.30288 -12.97492,4.89103 -1.34517,-1.34516 -5.63271,-2.44574 -9.52789,-2.44574 -7.24751,0 -9.71983,-3.61158 -9.79545,-14.30925 -0.0178,-2.36388 -2.16562,-12.21135 -4.77539,-21.88328 l -4.74504,-17.58532 -8.04717,1.45621 c -14.85052,2.68733 -53.04845,16.37171 -71.26375,25.53018 l -18.04865,9.07468 7.32049,6.42747 c 10.67841,9.37578 17.97365,25.4328 19.05191,41.93382 0.72236,11.05453 1.507,13.46532 3.771,11.58638 5.07935,-4.21549 17.5341,-6.77883 26.12296,-5.37642 10.43649,1.70408 20.43714,11.35102 23.42011,22.59179 1.99131,7.50391 2.25597,7.74247 2.46118,2.2186 0.12645,-3.4042 1.68054,-9.66126 3.45351,-13.90458 l 3.22358,-7.7151 20.69228,-0.34951 c 16.52981,-0.2792 18.45464,-0.61487 9.56864,-1.66855 -10.43353,-1.23721 -11.16486,-1.74018 -11.78779,-8.10692 -1.17895,-12.04948 13.19066,-19.0993 31.81016,-15.60627 11.32082,2.12379 16.68571,8.25113 16.68571,19.05705 0,8.36644 0.39182,8.89893 6.54806,8.89893 9.10634,0 13.47453,7.05945 13.47453,21.77623 0,11.66792 -2.71197,20.00112 -7.56342,23.24053 -1.34634,0.89897 -10.95747,1.8427 -21.3581,2.09721 -17.00029,0.41598 -17.50586,0.5425 -5.00564,1.25259 l 13.90457,0.78985 v 7.62912 c 0,9.43733 -5.45408,13.33181 -21.43436,15.30515 -11.61528,1.43433 -22.65331,-1.15535 -25.76186,-6.04408 -0.92387,-1.45295 -1.69509,-8.94429 -1.71382,-16.64743 -0.0289,-11.92961 0.77538,-14.81516 5.42665,-19.4664 4.75917,-4.75919 7.46429,-5.46072 21.05667,-5.46072 13.9274,0 15.87151,-0.53554 18.1713,-5.00565 2.12533,-4.13099 2.06126,-4.51972 -0.36666,-2.22473 -1.83614,1.7356 -9.46481,2.78092 -20.29492,2.78092 -20.97729,0 -26.25184,3.57597 -26.25184,17.79785 0,8.29681 -0.42826,8.89893 -6.32938,8.89893 -6.81607,0 -12.23851,-4.74195 -14.7171,-12.87018 l -1.55017,-5.08363 -4.43627,5.63981 c -5.57211,7.08379 -17.55704,7.63775 -25.75359,1.19034 -7.77424,-6.11521 -13.16409,-5.5831 -20.80078,2.05361 -5.39495,5.39495 -6.50165,8.33289 -6.49475,17.24167 0.0158,20.45054 13.22386,32.35399 39.15514,35.28778 11.29399,1.27778 15.86956,0.56486 30.98219,-4.82731 24.29986,-8.67013 47.68714,-8.65592 74.46195,0.0454 14.94768,4.85768 21.27186,5.85511 30.18058,4.76003 21.02986,-2.58509 32.11192,-14.30909 32.11192,-33.97212 0,-16.06065 -9.75801,-22.15677 -25.73989,-16.08047 -7.78218,2.95878 -15.67597,-1.92117 -20.05295,-12.39672 -5.02007,-12.01473 -3.96239,-18.44247 4.41282,-26.81768 6.54645,-6.54645 9.03241,-7.56408 18.478,-7.56408 10.473,0 22.87657,6.10782 27.45823,13.52109 0.82168,1.32952 1.99075,-4.42248 2.5979,-12.78226 1.32105,-18.18901 8.70721,-36.53426 17.78469,-44.17245 3.60187,-3.03077 7.36291,-5.51049 8.35788,-5.51049 0.99496,0 4.0782,4.75537 6.85164,10.56748 5.69631,11.9374 6.95451,38.89192 2.351,50.36501 -1.41824,3.53462 -2.24066,6.76452 -1.82759,7.17759 0.41307,0.41307 5.95801,-1.22747 12.32212,-3.64564 14.59122,-5.54424 24.05367,-5.55712 33.09365,-0.0452 19.54412,11.9168 19.68772,37.82329 0.27077,48.84809 -5.13014,2.91284 -6.50322,2.54602 -18.73794,-5.00565 -20.30938,-12.53568 -25.95205,-10.88205 -29.60593,8.67623 -2.61873,14.01735 1.5192,24.72592 13.17335,34.09146 10.86027,8.72756 17.81594,11.38896 29.60362,11.32711 12.71877,-0.0667 25.4757,-6.34409 35.51064,-17.47382 8.7634,-9.71948 21.22094,-32.57344 18.97813,-34.81626 -0.71194,-0.71193 -7.41413,1.19222 -14.89372,4.23144 -7.47959,3.03923 -13.59928,4.95181 -13.59928,4.2502 0,-3.4513 16.49088,-54.02964 17.61348,-54.02138 0.7132,0.005 5.75791,2.9691 11.21047,6.58638 5.45255,3.61726 10.26402,6.22654 10.69215,5.79841 0.42815,-0.42815 -0.83546,-7.00671 -2.80801,-14.61905 -1.97256,-7.61234 -3.15705,-14.27001 -2.63224,-14.79482 0.72404,-0.72406 27.16155,5.46797 29.83241,6.98715 0.27687,0.15751 -1.47511,5.49331 -3.89328,11.85742 -5.27066,13.87125 -5.436,17.92086 -1.07328,26.28601 5.01035,9.6069 4.12924,14.79019 -4.73254,27.83989 -10.68897,15.7404 -20.55358,39.84668 -22.26518,54.40964 -0.75944,6.46154 -0.0917,20.03534 1.48401,30.16399 l 2.86481,18.41573 -16.47786,15.07798 c -9.0628,8.29291 -17.97953,15.06166 -19.81494,15.04168 -1.8354,-0.02 -12.59923,-2.95958 -23.91963,-6.53245 -56.15391,-17.72295 -131.71169,-25.64155 -211.6353,-22.1798 -58.04638,2.51419 -100.71155,9.06892 -145.360014,22.33199 -11.891384,3.53238 -22.903806,6.3798 -24.472053,6.32756 -1.568247,-0.0523 -10.433773,-6.80986 -19.701169,-15.01694 z m -0.296902,-33.07992 -5.636272,-5.63627 -1.578864,8.41607 c -1.355075,7.22317 -0.84411,8.97622 3.60493,12.36806 5.12148,3.9045 5.208211,3.87108 7.215136,-2.7798 1.734129,-5.74684 1.206681,-7.55646 -3.60493,-12.36806 z m 51.630061,15.93322 c 2.209577,-2.66238 2.209577,-4.01182 0,-6.6742 -3.56238,-4.2924 -8.677377,-4.27838 -10.330014,0.0283 -1.27838,3.33149 2.639777,9.98304 5.880554,9.98304 0.92395,0 2.92621,-1.5017 4.44946,-3.3371 z m 333.271267,-4.17645 c -0.80646,-5.65226 -9.4966,-7.69147 -11.41977,-2.67975 -0.71556,1.86468 0.1871,4.87846 2.00595,6.69728 4.41865,4.41866 10.26171,1.92502 9.41382,-4.01753 z m 50.94477,2.5079 c 3.98676,-4.37402 4.23958,-5.93352 2.00368,-12.35917 l -2.5588,-7.35354 -5.1697,5.50292 c -4.08365,4.34682 -4.85336,6.9433 -3.66382,12.35917 1.79547,8.17473 3.34593,8.48034 9.38864,1.85062 z M 171.93275,455.55296 c 3.67081,-2.25995 8.51922,-7.24324 10.77424,-11.07398 11.93173,-20.26902 -17.72648,-35.21252 -41.83972,-21.08123 -20.09286,11.7752 -17.5129,29.41852 5.48106,37.48282 5.29992,1.85874 18.31331,-0.85111 25.58442,-5.32761 z m 44.49464,-4.41634 c 0,-3.47378 -1.43717,-5.77767 -3.9,-6.25196 -4.40383,-0.84811 -7.26773,4.4789 -5.24367,9.75349 2.12181,5.52935 9.14367,2.84036 9.14367,-3.50153 z m 98.54214,1.23013 c 2.12528,-4.66451 1.8607,-5.64079 -1.84773,-6.81781 -2.38051,-0.75554 -5.33829,-0.74944 -6.57284,0.0134 -3.16644,1.95696 -2.79446,9.43095 0.53627,10.77493 4.75439,1.91844 5.33404,1.62651 7.8843,-3.97067 z m 73.25872,1.0553 c 21.56853,-13.15088 3.1433,-37.33955 -26.79321,-35.17413 -15.35521,1.1107 -21.53501,6.35831 -21.53501,18.28661 0,17.37961 30.20857,27.93551 48.32822,16.88752 z m -116.4432,-12.45087 5.68157,-10.16547 -5.787,-8.74475 c -3.18286,-4.80963 -6.45562,-8.74478 -7.27281,-8.74478 -0.81718,0 -3.57227,4.2946 -6.12241,9.54359 l -4.63664,9.54357 5.5316,9.36665 c 3.04237,5.15163 5.84491,9.36663 6.22785,9.36663 0.38294,0 3.25296,-4.57444 6.37784,-10.16544 z m 163.77847,2.30907 c 0,-6.89059 -5.77826,-9.56615 -10.48804,-4.85639 -4.70975,4.70978 -2.0342,10.48803 4.85639,10.48803 4.54255,0 5.63165,-1.08909 5.63165,-5.63164 z M 94.778033,441.68151 c -0.928697,-6.53911 -10.722201,-8.54314 -10.722201,-2.19407 0,5.34859 1.851127,7.19972 7.199714,7.19972 3.11769,0 4.046047,-1.31924 3.522487,-5.00565 z M 214.61274,426.47696 c 3.97185,-3.97183 0.78099,-11.2635 -4.59336,-10.49659 -6.39393,0.9124 -8.22587,12.90894 -1.97127,12.90894 2.28376,0 5.23785,-1.08556 6.56463,-2.41235 z m 104.15234,-5.4047 c 0,-2.88885 -1.73327,-4.66515 -5.00565,-5.12989 -3.68641,-0.52355 -5.00565,0.40481 -5.00565,3.52248 0,2.32838 0.70204,4.93544 1.56007,5.79347 2.9512,2.9512 8.45123,0.22695 8.45123,-4.18606 z m -35.69074,-54.32172 c 1.6453,-2.66211 -2.5398,-5.29982 -5.5031,-3.4684 -2.48805,1.53769 -0.85467,5.5394 2.26102,5.5394 1.07918,0 2.53811,-0.93196 3.24208,-2.071 z M 21.763326,360.06373 c 0,-2.22518 -1.417501,-5.22218 -3.150003,-6.66002 -2.518906,-2.09052 -3.447172,-1.67799 -4.633268,2.05908 -1.579346,4.97608 2.504113,11.90939 5.810616,9.86586 1.08496,-0.67054 1.972655,-3.03976 1.972655,-5.26492 z M 517.47716,357.1417 c -0.391,-2.7531 -1.71205,-5.00565 -2.93565,-5.00565 -1.2236,0 -2.54465,2.25255 -2.93565,5.00565 -0.48917,3.44426 0.42655,5.00565 2.93565,5.00565 2.5091,0 3.42482,-1.56139 2.93565,-5.00565 z M 88.161579,334.45382 c 0.49165,-2.53624 -0.31007,-3.60596 -2.22473,-2.96839 -1.64636,0.54821 -3.339287,2.78107 -3.762037,4.96188 -0.49166,2.53624 0.31007,3.60596 2.224727,2.96839 1.64636,-0.54821 3.33928,-2.78107 3.76204,-4.96188 z M 446.68718,331.1324 c 0,-2.37498 -1.08836,-4.9908 -2.41858,-5.81293 -3.40181,-2.10244 -7.33881,2.46033 -5.73322,6.64445 1.90704,4.96965 8.1518,4.33267 8.1518,-0.83152 z M 195.29244,316.54034 c 0,-1.85393 -1.97754,-3.33709 -4.44947,-3.33709 -4.4322,0 -5.7868,2.37054 -2.9663,5.19103 2.70956,2.70957 7.41577,1.53302 7.41577,-1.85394 z m 141.27049,-3.49202 c 0,-1.71667 -1.75197,-3.45864 -3.89328,-3.87102 -3.83486,-0.73852 -5.4202,3.98216 -2.36378,7.03861 2.33199,2.33196 6.25706,0.34495 6.25706,-3.16759 z M 257.0751,290.53879 c -1.37504,-4.12514 -6.16436,-4.80934 -6.16436,-0.88062 0,1.93737 1.58513,3.52249 3.52249,3.52249 1.93738,0 3.12621,-1.18883 2.64187,-2.64187 z m 192.2471,-12.76998 c -38.34449,-29.10721 -79.64442,-49.62048 -120.91351,-60.05655 -14.32959,-3.62365 -18.67029,-4.02154 -20.0876,-1.84132 -2.77827,4.27373 -12.9157,36.96205 -12.9157,41.6469 0,7.5526 -2.63153,11.19077 -8.0944,11.19077 -2.9665,0 -5.92693,-1.3897 -6.57871,-3.08824 -1.82121,-4.746 7.05803,-39.29758 13.70851,-53.34362 4.98462,-10.52768 6.87291,-12.54029 11.79253,-12.5689 3.24179,-0.0189 4.76444,-0.76397 3.40969,-1.66855 -5.44568,-3.63618 -7.8283,-11.44005 -5.08392,-16.65142 3.42398,-6.50183 6.2507,-8.26705 13.30499,-8.30868 7.11559,-0.042 13.13702,6.2379 13.13702,13.70088 0,5.89658 -5.95816,12.83147 -11.29883,13.15104 -1.73905,0.10407 1.84372,1.43183 7.96173,2.9506 6.11802,1.51876 13.40838,3.51356 16.20079,4.43287 4.9962,1.64482 4.98732,1.58166 -0.55618,-3.96184 -6.79389,-6.79389 -7.09113,-11.05194 -1.18385,-16.95922 7.89226,-7.89227 20.08193,-4.66001 23.3045,6.17951 1.15488,3.88462 -0.0334,6.50547 -5.09128,11.23034 l -6.59773,6.1632 13.65867,5.22805 c 31.63347,12.10819 71.48921,35.1488 97.50301,56.36653 l 12.65292,10.32013 0.69547,-6.03016 c 0.57736,-5.00613 1.78771,-6.03016 7.1272,-6.03016 8.00705,0 12.39452,5.8636 8.18381,10.93719 -1.60837,1.93796 -4.78093,3.52357 -7.05009,3.52357 -2.26918,0 -5.76568,2.50282 -7.77003,5.56183 -2.00433,3.05901 -4.27996,5.51329 -5.05693,5.45395 -0.77696,-0.0594 -11.73991,-7.94725 -24.36208,-17.5287 z m -409.822434,3.10183 c -4.298984,-5.17998 -0.0013,-11.04967 8.090445,-11.04967 5.663214,0 6.431732,0.7975 6.431732,6.6742 0,5.5225 -0.992606,6.78957 -5.752259,7.34286 -3.303249,0.38397 -7.037019,-0.87939 -8.769918,-2.96739 z m 20.640191,-15.86016 c -3.540177,-1.4285 -3.611264,-10.15475 -0.111237,-13.65478 4.136331,-4.13633 12.4878,-3.15381 15.128175,1.77978 4.782217,8.93564 -4.368456,16.17176 -15.016938,11.875 z m 397.670883,-2.97607 c -3.23378,-6.04238 0.82735,-13.34839 7.41988,-13.34839 6.37101,0 10.37798,3.94529 10.37798,10.21822 0,8.27197 -13.75167,10.69052 -17.79786,3.13017 z M 84.500769,246.01634 c -6.240364,-6.24036 -1.538907,-17.35291 7.341617,-17.35291 8.880524,0 13.581984,11.11255 7.341617,17.35291 -1.46832,1.46833 -4.772047,2.66968 -7.341617,2.66968 -2.569557,0 -5.873287,-1.20135 -7.341617,-2.66968 z m 173.185801,-0.54496 c -4.44422,-5.35494 -1.8789,-13.14839 5.13688,-15.60599 5.4364,-1.90434 6.94197,-1.4947 10.45593,2.84487 4.08367,5.0431 3.63261,11.05212 -1.07141,14.27314 -3.96011,2.71165 -11.68347,1.90747 -14.5214,-1.51202 z m 176.09716,0.54496 c -1.46832,-1.46832 -2.66968,-4.77205 -2.66968,-7.34161 0,-2.56957 1.20136,-5.8733 2.66968,-7.34162 1.46832,-1.46832 4.77205,-2.66968 7.34162,-2.66968 2.56956,0 5.87329,1.20136 7.34161,2.66968 1.46833,1.46832 2.66968,4.77205 2.66968,7.34162 0,2.56956 -1.20135,5.87329 -2.66968,7.34161 -1.46832,1.46833 -4.77205,2.66968 -7.34161,2.66968 -2.56957,0 -5.8733,-1.20135 -7.34162,-2.66968 z M 113.47236,229.64965 c -9.19553,-6.4408 -5.1351,-18.78407 6.17918,-18.78407 7.10481,0 11.12366,3.73215 11.12366,10.33009 0,4.243 -7.1632,11.91723 -11.12366,11.91723 -0.67908,0 -3.45971,-1.55847 -6.17918,-3.46325 z m 293.66466,0 c -9.19553,-6.4408 -5.1351,-18.78407 6.17917,-18.78407 7.1048,0 11.12367,3.73215 11.12367,10.33009 0,4.243 -7.1632,11.91723 -11.12367,11.91723 -0.67907,0 -3.45972,-1.55847 -6.17917,-3.46325 z m -149.10713,-8.10536 c -3.44149,-3.44148 -3.44149,-13.46648 0,-16.90796 6.54976,-6.54977 21.80237,-0.76555 21.80237,8.26808 0,8.89764 -15.42998,15.01226 -21.80237,8.63988 z m -118.35576,-6.22925 c -5.35476,-5.35476 -5.56332,-8.54337 -0.98621,-15.0781 4.32391,-6.17325 12.88035,-6.39874 18.78407,-0.49502 5.56253,5.56253 5.54725,6.90327 -0.16147,14.16073 -5.50343,6.99648 -11.56673,7.48205 -17.63639,1.41239 z M 376.507,214.3038 c -6.61985,-6.61984 -6.77137,-8.80176 -1.01125,-14.56188 5.90372,-5.90372 14.46016,-5.67823 18.78408,0.49501 4.54306,6.48615 4.37273,8.81343 -1.0729,14.65861 -5.86206,6.29219 -9.96126,6.14694 -16.69993,-0.59174 z M 171.69346,203.04198 c -4.08371,-4.08372 -5.19966,-6.94347 -4.12369,-10.56748 3.18996,-10.74428 15.41552,-13.93865 23.2732,-6.08097 5.87154,5.87154 5.61306,10.16231 -1.01124,16.78661 -6.91846,6.91846 -11.1136,6.8865 -18.13827,-0.13815 z m 33.95508,-7.36852 c -7.91209,-8.74275 -1.84641,-22.66817 9.84167,-22.59426 6.66797,0.0422 9.53684,1.88733 12.91844,8.30868 2.74438,5.21137 0.36176,13.01524 -5.08393,16.65142 -4.50674,3.00923 -13.95642,1.74445 -17.67618,-2.36584 z m 43.80812,-1.38288 c -11.08382,-4.82229 -18.56851,-17.74792 -18.56851,-32.06676 0,-36.71565 45.69689,-50.82408 66.17822,-20.43183 6.10342,9.05685 6.73084,25.84873 1.38661,37.11081 -7.37763,15.54722 -31.33566,23.07148 -48.99632,15.38778 z m 5.09121,-77.02521 c -4.2956,-3.37891 -5.86186,-6.64833 -5.86186,-12.23603 0,-7.21648 -0.41306,-7.62509 -7.7083,-7.62509 -9.49751,0 -12.31429,-4.46765 -12.31429,-19.53152 0,-15.29861 3.80469,-18.1837 24.64723,-18.68992 12.24722,-0.29747 13.78171,-0.61616 5.94284,-1.23427 -9.88284,-0.77927 -10.56748,-1.23542 -10.56748,-7.04075 0,-9.58197 6.14369,-13.5713 20.9002,-13.5713 18.97143,0 21.36971,1.98837 21.36971,17.71722 0,17.42021 -2.82071,20.10322 -21.13495,20.10322 -14.43255,0 -21.13496,3.22522 -21.13496,10.17021 0,2.33067 1.18652,1.99166 4.44947,-1.27128 3.57701,-3.57702 7.41576,-4.44946 19.57764,-4.44946 17.50482,0 20.46754,-1.99662 20.46754,-13.79334 0,-7.38543 0.65941,-8.45398 5.21701,-8.45398 13.77586,0 20.24329,27.61544 9.0815,38.77724 -2.48138,2.48137 -8.43895,3.60877 -20.57544,3.89367 -12.14762,0.28515 -14.02987,0.64173 -6.51528,1.23426 9.97552,0.78658 10.56747,1.19323 10.56747,7.25941 0,8.59712 -7.20045,13.35264 -20.21758,13.35264 -7.0805,0 -12.17205,-1.45003 -16.19047,-4.61093 z m 26.30174,-4.13427 c 0.70399,-1.13905 0.2625,-2.69983 -0.98106,-3.4684 -1.24356,-0.76856 -2.26102,0.1634 -2.26102,2.07101 0,3.9078 1.33497,4.48319 3.24208,1.39739 z M 262.0344,48.83094 c 0,-2.89677 -2.64469,-4.82329 -4.79605,-3.49368 -2.30086,1.42201 -0.31691,5.34762 2.70263,5.34762 1.15138,0 2.09342,-0.83427 2.09342,-1.85394 z"
       id="path13993" />
    <path
       style="fill:#8c8c8c;fill-opacity:1;stroke-width:2.22473216"
       d="M 48.883824,488.67168 C 35.817011,477.47701 30.79296,471.80278 31.746861,469.31696 35.745383,458.89698 35.358077,431.46343 30.937154,411.96403 25.148237,386.43081 23.301405,381.64234 15.325023,371.4849 6.4476317,360.18011 5.3551698,355.03499 9.7161369,345.06897 14.140718,334.95761 14.049704,327.70712 9.3572168,316.47643 7.4479587,311.90694 6.7051669,307.43814 7.7065687,306.54578 9.4986148,304.94885 46.23538,295.36557 46.23538,296.495 c 0,0.3188 -3.503953,8.26855 -7.786562,17.66613 -4.28261,9.39755 -7.786563,17.57716 -7.786563,18.17686 0,0.59972 5.250866,-2.91364 11.668591,-7.80748 9.974934,-7.60638 11.862958,-8.34764 13.007691,-5.10694 2.899329,8.20795 11.447302,56.28588 10.224672,57.5085 -0.71498,0.71499 -7.859058,-2.36807 -15.875727,-6.85126 -8.016669,-4.48317 -14.575763,-7.07256 -14.575763,-5.75416 0,6.2771 14.00149,29.00227 22.952362,37.25289 16.282054,15.00827 39.611787,16.09549 59.158449,2.75693 13.15803,-8.97897 18.6392,-17.67253 18.91023,-29.9931 0.23474,-10.6703 -3.36875,-16.03842 -13.65151,-20.33667 -6.34847,-2.65371 -8.54221,-2.4848 -18.91023,1.45586 -14.800286,5.62528 -26.537546,5.77162 -31.406412,0.3916 -8.1776,-9.03615 -1.453374,-27.04182 13.565115,-36.32375 6.456989,-3.99066 11.262974,-4.99206 23.423577,-4.88071 14.53026,0.13304 15.23194,-0.0957 13.95122,-4.54646 -4.12377,-14.33123 -3.85051,-33.88173 0.65136,-46.60073 3.71763,-10.50329 3.96963,-12.75123 1.3153,-11.73267 -5.39266,2.06936 -28.241087,18.07578 -44.610235,31.25162 -8.423436,6.78019 -16.826499,12.34028 -18.67347,12.35577 -1.84697,0.0156 -4.665886,-2.06589 -6.264258,-4.62529 -2.432189,-3.89455 -2.374426,-5.0737 0.354197,-7.23038 19.325381,-15.27458 38.720414,-29.24231 51.538106,-37.11619 38.27418,-23.51177 85.28267,-41.46698 114.70554,-43.81255 l 14.5926,-1.16331 5.79494,13.06078 c 6.91244,15.57938 12.79737,35.02981 12.99263,42.94227 0.13416,5.44029 0.23342,5.48516 2.06883,0.93622 2.52146,-6.24936 5.71878,-8.06582 11.15845,-6.33934 4.60553,1.46174 6.27192,10.82846 2.35691,13.24807 -1.13998,0.70456 -7.47179,0.64642 -14.0707,-0.12925 l -11.99805,-1.41013 -2.76968,-16.48328 c -1.52332,-9.06581 -4.33226,-21.06923 -6.24209,-26.67426 -3.46092,-10.15726 -3.50068,-10.18645 -12.01711,-8.82462 -15.09666,2.41406 -44.77841,12.59967 -67.07198,23.01648 -11.93013,5.57443 -21.68048,10.73513 -21.66745,11.46822 0.0131,0.73309 3.66376,4.83685 8.11274,9.11946 10.30589,9.9205 16.49458,23.79662 17.9955,40.34905 0.65056,7.17447 1.39054,13.04451 1.64441,13.04451 0.25386,0 3.70962,-1.62034 7.67945,-3.60075 9.2427,-4.61087 27.23541,-3.16457 33.84049,2.72016 5.71449,5.09134 10.79408,16.46497 10.79408,24.16891 0,7.28095 -7.31805,14.53221 -14.66604,14.53221 -3.17191,0 -8.31257,-2.00225 -11.42368,-4.44946 -16.7742,-13.19457 -35.92082,5.18258 -29.65261,28.46093 4.40054,16.34237 17.58464,25.02507 40.48709,26.66372 12.07474,0.86396 17.944,-0.02 31.73986,-4.78504 22.85634,-7.89299 45.5814,-7.99466 69.63899,-0.31155 27.97296,8.93354 46.38604,6.79311 58.30095,-6.77725 5.9626,-6.79099 6.85278,-9.46877 6.82317,-20.52473 -0.0178,-6.99313 -0.76958,-13.81632 -1.66855,-15.16266 -3.56796,-5.34349 -10.97941,-7.44393 -18.57732,-5.26489 -4.12492,1.18302 -9.77371,2.15093 -12.55289,2.15093 -11.00718,0 -18.37629,-25.97096 -10.54256,-37.15518 4.39242,-6.27105 17.2562,-10.36838 26.88246,-8.56248 4.22902,0.79336 11.04321,4.38742 15.14264,7.98677 l 7.45354,6.54429 1.52201,-15.44613 c 2.49888,-25.35957 20.3244,-54.90657 27.73665,-45.97536 8.68308,10.46247 11.65588,39.02251 6.01336,57.77117 -1.71565,5.70068 -2.84405,10.36487 -2.50754,10.36487 0.33651,0 5.40527,-2.12037 11.26395,-4.71193 13.50537,-5.97408 29.02021,-6.36325 37.30275,-0.9357 12.98414,8.50848 16.45352,26.15334 7.67286,39.02326 -7.61904,11.16733 -12.75737,11.99954 -25.23427,4.08692 -17.17887,-10.89451 -20.34658,-11.55036 -26.4257,-5.47121 -7.23203,7.232 -9.64157,23.82628 -4.90262,33.76393 4.90142,10.27837 23.78608,24.69824 34.77746,26.55522 21.31765,3.6016 45.71075,-13.20445 58.34124,-40.19516 3.73564,-7.9829 6.34256,-14.96388 5.79314,-15.5133 -0.5494,-0.54942 -7.15432,1.50223 -14.67759,4.55921 -7.52326,3.05698 -14.06929,5.55813 -14.54674,5.55813 -0.75505,0 14.17653,-51.00838 15.52976,-53.05182 0.28068,-0.42386 5.15613,2.42576 10.83432,6.33245 5.67818,3.9067 10.9702,6.45686 11.76002,5.66704 0.78982,-0.78982 -0.11613,-7.39365 -2.0132,-14.6752 -1.89708,-7.28152 -2.5564,-13.23916 -1.46517,-13.23916 4.05055,0 22.92829,5.11141 24.68532,6.6839 1.00142,0.89623 0.25862,5.36819 -1.65064,9.93768 -4.6925,11.23069 -4.78351,18.48118 -0.35892,28.59254 4.39122,10.03519 3.27625,15.10417 -5.88648,26.76137 -3.70514,4.71383 -10.23455,17.15034 -14.5098,27.63669 -7.58271,18.59893 -7.7416,19.6153 -6.48505,41.48584 0.70845,12.33087 1.86139,24.9226 2.56212,27.98161 1.09121,4.76366 -1.15686,7.76474 -15.6651,20.91235 l -16.93913,15.35051 -22.29449,-7.04308 c -26.21469,-8.28154 -67.75113,-16.89554 -97.45944,-20.2116 -93.1351,-10.39577 -208.58077,-0.7086 -275.590322,23.12509 -5.35415,1.90435 -10.359797,3.45779 -11.123661,3.45209 -0.763862,-0.007 -9.707771,-7.13736 -19.875353,-15.84816 z m 4.841602,-22.36399 c 1.164721,-4.90455 0.245562,-6.79751 -5.174769,-10.65713 l -6.591058,-4.69325 -2.003394,7.32004 c -1.727522,6.31205 -1.218163,8.16717 3.699007,13.47199 6.078388,6.55758 7.388829,5.84947 10.070214,-5.44165 z m 432.539114,-8.45262 -2.99916,-7.35014 -6.06985,5.3215 c -5.72566,5.01973 -5.91972,5.80067 -3.42217,13.77146 l 2.6477,8.44996 6.42133,-6.42133 c 6.09775,-6.09775 6.27019,-6.79171 3.42215,-13.77145 z M 101.51669,470.1939 c 1.08522,-5.68819 -5.949132,-11.02524 -10.047954,-7.62351 -3.188306,2.64605 -3.954208,9.08122 -1.386444,11.64898 2.970382,2.97038 10.613028,0.27979 11.434398,-4.02547 z m 331.82209,2.07768 c 3.48147,-4.19491 -0.59496,-10.0113 -7.01642,-10.0113 -5.36877,0 -7.68665,5.69837 -4.08372,10.03962 3.50444,4.22258 7.58084,4.21219 11.10014,-0.0283 z m -266.23635,-13.0459 c 9.59741,-4.01003 19.29108,-15.79108 19.29108,-23.44507 0,-12.86983 -20.13811,-22.30625 -37.42,-17.53449 -9.69473,2.67684 -22.64777,15.08246 -22.64777,21.69063 0,16.81868 21.89766,27.1771 40.77669,19.28893 z m 50.43733,-8.32708 c 0,-5.38209 -0.91088,-6.43617 -5.56183,-6.43617 -4.66134,0 -5.56183,1.05056 -5.56183,6.48881 0,3.56882 1.25141,6.9253 2.78091,7.45883 5.17498,1.80513 8.34275,-1.047 8.34275,-7.51147 z m 163.92917,6.76403 c 22.21604,-8.41743 21.14305,-29.45561 -1.97403,-38.70522 -12.86961,-5.14941 -27.05367,-2.95157 -35.5071,5.50185 -3.47187,3.47188 -6.3125,7.94094 -6.3125,9.93123 0,16.28726 25.90133,30.05134 43.79363,23.27214 z m -66.06447,-3.16059 c 3.91315,-4.71503 1.11123,-10.03961 -5.28309,-10.03961 -5.82364,0 -7.93809,3.16944 -6.30785,9.45511 1.23406,4.75814 7.85023,5.09179 11.59094,0.5845 z m -42.04412,-15.18446 4.47963,-8.48192 -6.23423,-9.86814 c -3.42883,-5.42745 -6.81396,-9.86991 -7.52249,-9.87209 -0.70856,-0.002 -3.54727,4.81911 -6.3083,10.714 l -5.02001,10.71796 6.23519,10.3228 c 6.68641,11.06982 6.6539,11.07781 14.37021,-3.53261 z m 162.11457,8.58871 c 1.48872,-1.7938 2.01961,-5.31402 1.19381,-7.91591 -2.17494,-6.85266 -13.05891,-5.31125 -14.09206,1.99572 -1.15737,8.18546 7.6596,12.23236 12.89825,5.92019 z M 95.214121,445.53306 c 2.294832,-2.7651 2.079633,-4.17945 -1.184763,-7.78656 -4.992659,-5.51683 -6.986516,-5.53956 -9.890846,-0.1128 -1.735073,3.24204 -1.442598,5.15097 1.193002,7.78656 4.364026,4.36404 6.335706,4.38653 9.882607,0.1128 z M 216.42739,422.21511 c 0,-4.41365 -1.26301,-5.70715 -6.11801,-6.26578 -5.52209,-0.63538 -6.11801,-0.0251 -6.11801,6.26578 0,6.29085 0.59592,6.90116 6.11801,6.26578 4.855,-0.55863 6.11801,-1.85213 6.11801,-6.26578 z m 103.45005,-1.11237 c 0,-1.53575 -1.50169,-4.03857 -3.3371,-5.56183 -2.66238,-2.20958 -4.01181,-2.20958 -6.67419,0 -4.24797,3.52549 -4.20128,5.4922 0.23571,9.92918 2.75849,2.75849 4.27965,2.98615 6.67419,0.99886 1.70577,-1.41566 3.10139,-3.83045 3.10139,-5.36621 z M 22.374885,362.27376 c 1.174895,-4.4928 -5.351714,-12.44253 -8.022479,-9.77178 -2.365444,2.36544 -1.729521,8.51396 1.18167,11.42515 3.761277,3.76129 5.537082,3.33207 6.840809,-1.65337 z m 495.095305,-5.30363 c 0.48702,-4.11393 -0.32376,-5.94644 -2.63099,-5.94644 -3.74961,0 -6.92434,7.60088 -4.68689,11.22119 2.45709,3.97562 6.57411,1.00807 7.31788,-5.27475 z M 90.174491,336.00793 c 1.216397,-3.6533 -5.754221,-6.26115 -8.744036,-3.27134 -1.279461,1.27945 -1.619389,3.47007 -0.755399,4.86805 1.965666,3.1805 8.26114,2.12233 9.499435,-1.59671 z m 357.756999,-2.99558 c 2.35103,-3.80407 -5.06685,-10.20227 -8.19802,-7.07109 -1.39482,1.39482 -1.93396,4.10501 -1.19809,6.02266 1.53972,4.01242 7.17561,4.64126 9.39611,1.04843 z m -252.88403,-13.9521 c 1.92329,-2.31741 1.70078,-3.72562 -0.93424,-5.91249 -4.25215,-3.52896 -8.9971,0.192 -6.97257,5.46777 1.64786,4.29427 4.57532,4.45892 7.90681,0.44472 z m 142.20923,-6.43873 c 0.51414,-2.66968 -0.68392,-3.86774 -3.86774,-3.86774 -3.18379,0 -4.61258,1.42879 -4.61258,4.61258 0,5.70121 7.36349,5.05444 8.48032,-0.74484 z m -80.97831,65.02602 c -11.36436,-2.38553 -12.04183,-3.56893 -12.04183,-21.03441 0,-21.26853 1.99865,-23.3873 22.06142,-23.3873 11.77362,0 15.87467,-0.8898 18.75131,-4.06845 4.84905,-5.35814 5.01895,-10.93481 0.18599,-6.10175 -2.57864,2.57855 -8.0346,3.49601 -20.79023,3.49601 -20.55448,0 -24.65796,2.89842 -24.65796,17.41684 0,8.81192 -0.33402,9.27994 -6.62291,9.27994 -9.37095,0 -13.834,-7.74645 -13.98975,-24.28188 -0.0832,-8.82961 1.12103,-15.12991 3.62112,-18.94553 3.5349,-5.39493 4.80717,-5.71669 22.60465,-5.71669 11.08947,0 18.85895,-0.91655 18.85895,-2.22473 0,-1.22361 -4.50509,-2.22474 -10.0113,-2.22474 -9.93897,0 -10.01129,-0.0556 -10.01129,-7.70829 0,-9.69236 5.40532,-12.94992 21.488,-12.94992 16.8832,0 23.00664,4.62382 23.00664,17.3724 0,9.43293 0.33071,9.96001 6.24898,9.96001 11.86682,0 14.88756,4.52555 14.87192,22.28038 -0.0178,21.41865 -3.30126,24.27198 -28.59773,24.85964 -15.32634,0.35607 -16.14275,0.54397 -5.31538,1.22341 l 12.79221,0.80272 v 7.40313 c 0,4.07173 -1.35811,8.53025 -3.018,9.90785 -4.37145,3.62798 -21.44055,6.3195 -29.43481,4.64136 z m 27.01078,-9.01984 c 2.29263,-3.70956 -2.8637,-7.96345 -5.93274,-4.89441 -2.56716,2.56717 -0.96046,7.31299 2.47584,7.31299 1.07918,0 2.63477,-1.08837 3.4569,-2.41858 z m -25.70422,-78.91544 c 0,-3.27029 -4.74956,-4.38887 -7.39648,-1.74194 -2.01189,2.01189 2.97407,7.68095 5.42383,6.16691 1.08496,-0.67054 1.97265,-2.66178 1.97265,-4.42497 z m 205.78773,-2.37829 C 447.78775,273.87548 410.6873,249.9555 388.74852,239.22116 366.5483,228.35889 334.3305,216.96537 318.21334,214.27706 l -9.45068,-1.57635 -4.13238,9.64991 c -4.3085,10.06118 -11.44962,36.39474 -11.44962,42.22154 0,2.47206 -1.76691,3.10651 -6.65396,2.38923 -5.45782,-0.80103 -6.46069,-1.83155 -5.57878,-5.73269 0.59133,-2.61587 2.11134,-9.61483 3.37775,-15.55326 1.26642,-5.93844 5.38207,-18.78254 9.14589,-28.54247 l 6.84332,-17.74531 11.33005,1.55828 c 36.77569,5.05795 86.02027,25.27259 125.03095,51.32454 21.81041,14.56533 43.38228,31.43393 43.38228,33.9237 0,1.01608 -1.75198,3.41725 -3.89328,5.33597 -3.58193,3.2096 -4.60493,2.87405 -12.79221,-4.19618 z M 39.725658,280.13959 c -2.849475,-5.32429 1.83249,-12.23576 7.530683,-11.11672 6.233609,1.22418 9.333401,7.48743 5.808004,11.73529 -3.94969,4.75908 -10.626362,4.44946 -13.338687,-0.61857 z m 440.266832,0.72591 c -4.04225,-4.87061 -0.13905,-11.04453 6.98234,-11.04453 4.42724,0 5.31936,1.11933 5.31936,6.6742 0,5.07239 -1.11459,6.83344 -4.64415,7.33774 -2.55426,0.36495 -6.00017,-0.97038 -7.65755,-2.96741 z M 59.672471,263.25365 c -5.909903,-7.121 2.770313,-18.05986 10.478781,-13.20543 7.702757,4.85084 4.958543,16.43566 -3.893282,16.43566 -2.147558,0 -5.111033,-1.4536 -6.585499,-3.23023 z m 400.451799,0 c -5.90991,-7.121 2.7703,-18.05986 10.47878,-13.20543 7.70276,4.85084 4.95855,16.43566 -3.89328,16.43566 -2.14756,0 -5.11104,-1.4536 -6.5855,-3.23023 z M 85.724377,246.28309 c -7.811958,-4.55005 -2.675091,-17.61966 6.925213,-17.61966 3.227909,0 9.2041,6.5003 9.2041,10.0113 0,3.745 -6.081294,10.03479 -9.614027,9.94364 -1.442102,-0.0372 -4.373981,-1.08808 -6.515286,-2.33528 z m 173.131843,-1.09308 c -4.95359,-4.95357 -4.34212,-9.19541 1.91663,-13.29631 6.83039,-4.47544 14.60995,-1.0599 14.60995,6.41436 0,9.70699 -9.67338,13.73515 -16.52658,6.88195 z m 175.75384,0 c -1.92281,-1.9228 -3.49601,-4.85468 -3.49601,-6.51528 0,-3.511 5.97619,-10.0113 9.2041,-10.0113 5.40276,0 10.81849,5.01165 10.81849,10.0113 0,3.06713 -1.86143,6.40149 -4.30321,7.70828 -5.84633,3.12886 -8.12379,2.90658 -12.22337,-1.193 z M 110.70764,226.35467 c -4.85015,-9.06259 4.45129,-18.54282 14.43446,-14.71192 4.58076,1.7578 6.73463,11.90043 3.3844,15.93721 -4.09598,4.93535 -14.92013,4.19104 -17.81886,-1.22529 z m 293.73361,1.22529 c -3.35025,-4.03678 -1.19637,-14.17941 3.38439,-15.93721 9.98318,-3.8309 19.28461,5.64933 14.43447,14.71192 -2.89874,5.41633 -13.72288,6.16064 -17.81886,1.22529 z m -145.66281,-7.72581 c -5.49124,-6.06775 -2.97064,-15.13196 4.74656,-17.06885 7.64026,-1.91759 12.79187,1.46814 13.68711,8.99539 1.39054,11.69209 -10.46127,16.88287 -18.43367,8.07346 z M 140.11908,214.8701 c -6.0842,-6.0842 0.009,-19.57764 8.84054,-19.57764 8.15796,0 13.84472,13.80034 8.06742,19.57764 -3.44147,3.44147 -13.46648,3.44147 -16.90796,0 z m 235.82161,0 c -6.08419,-6.0842 0.009,-19.57764 8.84053,-19.57764 8.15799,0 13.84473,13.80034 8.06744,19.57764 -3.44148,3.44147 -13.46648,3.44147 -16.90797,0 z M 171.26533,203.74644 c -4.81316,-4.81316 -3.15996,-14.70436 3.14851,-18.83783 5.2111,-3.41444 6.42982,-3.4705 11.67984,-0.5373 6.53336,3.65021 8.98368,13.60559 4.63764,18.84224 -3.22345,3.88402 -15.77135,4.22752 -19.46599,0.53289 z m 171.30438,0 c -4.81316,-4.81316 -3.15996,-14.70436 3.14851,-18.83783 5.2111,-3.41444 6.42983,-3.4705 11.67984,-0.5373 6.53335,3.65021 8.98367,13.60559 4.63763,18.84224 -3.22343,3.88402 -15.77134,4.22752 -19.46598,0.53289 z M 206.4161,195.29245 c -2.44721,-2.4472 -4.44947,-6.45172 -4.44947,-8.89892 0,-5.51472 7.54317,-13.34839 12.85338,-13.34839 7.09954,0 13.84341,6.50272 13.84341,13.34839 0,11.69595 -13.89307,17.25318 -22.24732,8.89892 z m 102.83271,0.98622 c -9.85163,-6.90034 -3.59566,-23.23353 8.89892,-23.23353 5.3102,0 12.85337,7.83367 12.85337,13.34839 0,5.51471 -7.54317,13.34839 -12.85337,13.34839 -2.17496,0 -6.17948,-1.55846 -8.89892,-3.46325 z m -54.73556,-0.94753 c -15.01127,-4.76457 -24.63837,-19.85698 -23.07103,-36.16854 3.29332,-34.27418 44.03515,-44.66479 64.87097,-16.54439 6.49673,8.76811 6.53344,29.80811 0.0672,38.46907 -10.22149,13.69058 -26.33661,19.17321 -41.86704,14.24386 z m 5.29642,-76.24889 c -7.67285,-2.72736 -7.7963,-2.97367 -8.45394,-16.86659 -0.87952,-18.5803 0.84687,-20.38453 19.50521,-20.38453 17.18343,0 22.31972,-3.49606 22.31972,-15.19212 0,-6.33735 0.67111,-7.0552 6.59593,-7.0552 8.26623,0 11.20192,5.07926 11.20192,19.38131 0,17.61101 -3.55281,20.5877 -25.15438,21.0754 -13.63204,0.30777 -15.28302,0.61755 -6.54805,1.22863 11.14115,0.77941 11.67984,1.10699 11.67984,7.10262 0,3.45704 -1.46242,7.49923 -3.24984,8.98266 -4.81879,3.99923 -19.03,4.87943 -27.89641,1.72782 z m 22.24732,-7.21724 c 0,-1.83541 -1.50169,-3.3371 -3.33709,-3.3371 -1.83541,0 -3.3371,1.50169 -3.3371,3.3371 0,1.8354 1.50169,3.3371 3.3371,3.3371 1.8354,0 3.33709,-1.5017 3.33709,-3.3371 z m -51.09057,-20.9887 c -3.41948,-6.38935 -2.78886,-20.70987 1.16024,-26.34802 3.08822,-4.40905 5.39115,-4.94448 21.26626,-4.94448 11.30215,0 17.30094,-0.81237 16.42805,-2.22473 -0.75623,-1.22361 -5.32041,-2.22473 -10.1426,-2.22473 -8.2746,0 -8.76763,-0.37841 -8.76763,-6.72926 0,-5.28453 1.31351,-7.23701 6.11802,-9.09423 7.49436,-2.89702 25.86827,-1.44364 30.51625,2.41383 4.53189,3.76113 4.49838,21.99069 -0.0523,28.48776 -2.99667,4.27827 -5.48466,4.94448 -18.46532,4.94448 -17.01574,0 -20.3414,2.07324 -20.3414,12.68097 0,6.89307 -0.47095,7.34162 -7.7083,7.34162 -5.34402,0 -8.41464,-1.31986 -10.01129,-4.30321 z M 262.0344,48.46015 c 0,-2.47192 -1.48316,-4.44946 -3.33709,-4.44946 -3.38696,0 -4.56351,4.7062 -1.85394,7.41577 2.82049,2.82049 5.19103,1.4659 5.19103,-2.96631 z"
       id="path13991" />
    <path
       style="fill:#000000;fill-opacity:1;stroke-width:2.22473216"
       d="m 49.322759,488.53806 c -17.918963,-15.6816 -18.034284,-15.85133 -16.182384,-23.81687 6.010969,-25.8549 -2.717306,-74.08243 -16.729871,-92.4399 -8.9544557,-11.73097 -9.9831777,-19.16333 -4.301526,-31.07786 3.515674,-7.37245 3.46619,-8.36503 -1.024796,-20.55644 -2.5953617,-7.04545 -4.3445187,-13.18424 -3.8870147,-13.64176 1.629424,-1.62941 35.1145437,-9.59088 36.1179757,-8.58746 0.562108,0.56212 -2.490262,8.62388 -6.783043,17.91505 -4.292784,9.29115 -7.210324,16.89301 -6.483426,16.89301 0.726895,0 6.568192,-3.9612 12.980658,-8.80264 l 11.65903,-8.80266 4.847976,26.04433 c 2.666386,14.32436 5.414157,28.44062 6.106158,31.36941 1.236904,5.23504 0.99999,5.18799 -14.00731,-2.78091 -8.396022,-4.4583 -16.013525,-8.10601 -16.927785,-8.10601 -0.91426,0 0.2895,4.55333 2.675022,10.11855 16.366946,38.18251 45.402008,51.8601 75.306267,35.47461 15.51574,-8.50156 22.91583,-18.27688 24.23588,-32.01491 0.91997,-9.57425 0.35524,-11.33583 -5.34123,-16.66122 -9.07556,-8.48435 -14.82932,-9.2521 -28.9219,-3.85917 -6.780037,2.59457 -15.24165,4.71741 -18.803578,4.71741 -7.811706,0 -15.37516,-6.9518 -15.37516,-14.13177 0,-7.07021 8.417942,-19.09252 17.8508,-25.49407 6.680324,-4.53356 9.863721,-5.14425 23.373488,-4.48388 l 15.63988,0.76449 -3.02627,-14.47929 c -3.47507,-16.62654 -2.3241,-29.61065 3.86512,-43.60239 2.38661,-5.39533 3.58214,-9.80969 2.65674,-9.80969 -2.54448,0 -38.052854,24.59154 -52.492582,36.35406 -6.998484,5.70092 -13.478711,10.36531 -14.400504,10.36531 -0.921794,0 -3.33135,-1.82915 -5.354568,-4.06478 -3.442068,-3.80345 -3.356959,-4.35748 1.323742,-8.61699 10.937378,-9.95323 42.474902,-31.91402 61.032882,-42.49957 25.39976,-14.48812 54.23052,-26.29604 80.43764,-32.94402 27.32115,-6.93058 34.80355,-6.90432 39.41808,0.13833 4.79295,7.31496 13.58373,33.67086 15.50585,46.48857 1.49146,9.94573 1.33656,10.35221 -3.94509,10.35221 -5.05619,0 -5.60515,-1.02974 -6.83823,-12.82726 -1.39386,-13.33571 -9.60357,-42.79103 -11.92661,-42.79103 -5.93635,0 -51.48129,15.16754 -70.01697,23.31732 -31.96991,14.05653 -30.66624,12.63547 -20.23627,22.05833 11.50292,10.39219 18.95319,27.51824 19.215,44.16981 0.11061,7.03571 0.24943,12.7922 0.30847,12.7922 0.0591,0 4.03467,-2.00225 8.83472,-4.44946 17.27693,-8.80827 34.10323,-3.98768 41.28351,11.82739 5.74184,12.6468 5.38238,18.163 -1.53836,23.60685 -7.34563,5.77807 -12.0269,5.81741 -19.21726,0.16151 -13.48669,-10.60863 -30.0716,-2.32331 -32.14343,16.0579 -1.51877,13.47451 3.63683,24.54947 14.89718,32.00121 7.49139,4.95757 12.39747,6.2696 26.49577,7.08573 14.56562,0.84319 19.97155,0.0801 34.18117,-4.82429 22.37876,-7.72411 42.00299,-7.81168 65.54731,-0.29249 42.12386,13.45282 68.1229,2.13975 68.27816,-29.71018 0.0487,-10.01514 -0.81761,-12.64994 -5.37277,-16.33847 -4.21738,-3.41504 -7.18244,-4.0502 -13.26895,-2.84239 -15.87484,3.15022 -18.44703,2.5719 -23.83631,-5.35929 -15.34325,-22.58018 5.70926,-45.26746 31.44272,-33.88433 5.42963,2.40179 11.17431,6.45212 12.76595,9.00073 4.69517,7.51814 6.27304,5.42769 6.27304,-8.31078 0,-7.11952 1.54467,-18.14607 3.4326,-24.5034 3.44947,-11.61574 14.72199,-27.06927 19.7455,-27.06927 4.20412,0 10.16636,14.66664 11.6214,28.58779 0.87521,8.37367 0.10635,17.379 -2.27852,26.68819 -1.9797,7.72754 -3.59946,14.42374 -3.59946,14.88041 0,0.45669 5.25593,-1.61665 11.67984,-4.60741 16.95853,-7.89534 30.42724,-7.44158 40.45502,1.36293 12.5979,11.0611 13.47727,27.04991 2.11276,38.41442 -7.70454,7.70454 -11.07905,7.46647 -26.59425,-1.87629 -7.11198,-4.28261 -13.80642,-7.78656 -14.87654,-7.78656 -8.67,0 -14.96383,12.39834 -14.98915,29.52739 -0.0234,15.81422 25.44088,37.07763 44.48223,37.14397 10.31548,0.036 28.30596,-8.68626 37.14962,-18.011 7.17917,-7.56972 20.61308,-31.70722 20.66523,-37.13045 0.0318,-3.30443 -4.33741,-2.37025 -19.43822,4.15612 -5.20031,2.24749 -9.45511,3.352 -9.45511,2.45445 0,-3.48304 13.85347,-46.05515 15.57515,-47.86285 1.00217,-1.05228 6.41737,1.24836 12.03373,5.11251 l 10.21156,7.02575 -0.0133,-6.22489 c -0.007,-3.42368 -1.08093,-10.073 -2.3869,-14.77624 -1.30598,-4.70326 -2.00468,-8.92118 -1.55268,-9.37318 0.8512,-0.85122 23.82339,4.79575 25.22951,6.20187 0.43707,0.43705 -1.32881,6.55913 -3.92419,13.60458 -4.49097,12.19141 -4.54045,13.18399 -1.02477,20.55644 5.57927,11.69987 4.63333,19.37255 -3.74094,30.34345 -4.08923,5.35718 -10.68438,17.6977 -14.65589,27.42336 -6.18784,15.15316 -7.22192,20.38849 -7.22789,36.59326 -0.004,10.40062 0.9578,23.07205 2.13697,28.15874 l 2.14393,9.24853 -12.50931,11.97008 c -22.70749,21.72864 -20.40355,20.70113 -34.54936,15.40849 -51.0039,-19.08299 -125.24753,-28.4009 -209.3321,-26.2721 -69.36529,1.75613 -127.46034,10.43081 -168.14785,25.10761 -8.150184,2.93994 -15.19796,5.3008 -15.661723,5.24634 -0.463761,-0.0545 -8.964614,-7.20635 -18.890782,-15.89313 z m 4.540728,-20.81299 c 1.137825,-5.41553 0.326859,-7.80071 -4.050392,-11.91293 -6.465786,-6.07429 -9.182988,-5.0145 -11.047682,4.30898 -1.127808,5.63905 -0.292361,7.78642 4.718296,12.12756 6.814967,5.90438 8.327282,5.24528 10.379778,-4.52361 z m 434.156433,-6.25739 c -2.13854,-10.69266 -5.01991,-12.05941 -11.58438,-5.49496 -5.3673,5.3673 -5.59389,6.37086 -3.12657,13.84687 l 2.66009,8.0602 6.71093,-4.77859 c 5.73324,-4.08245 6.51119,-5.77725 5.33993,-11.63352 z m -386.23668,9.82317 c 1.86541,-3.48556 1.35625,-4.98645 -2.641477,-7.78656 -6.453987,-4.52055 -7.765877,-4.38304 -10.712579,1.12293 -1.824051,3.40827 -1.774017,5.41509 0.19413,7.78656 3.758262,4.52842 10.440569,3.95822 13.159926,-1.12293 z m 332.79063,-0.5183 c 1.57306,-4.9563 -4.20951,-11.59946 -8.77275,-10.07839 -3.7379,1.24596 -6.57463,7.49016 -5.12224,11.27503 2.10929,5.49676 12.0421,4.64133 13.89499,-1.19664 z M 168.14995,459.12181 c 8.0974,-4.23028 17.71618,-14.75716 18.47685,-20.22121 1.62501,-11.67288 -5.99476,-18.9652 -23.04203,-22.05179 -9.69998,-1.75627 -24.73441,3.88536 -32.4639,12.18199 -12.08518,12.97192 0.70306,33.22948 20.97718,33.22948 5.5244,0 12.74776,-1.41232 16.0519,-3.13847 z m 50.25234,-4.0919 c 2.88257,-4.5773 -0.33683,-11.26322 -5.95653,-12.37025 -5.19753,-1.02386 -9.01587,7.34664 -5.95783,13.06065 2.82611,5.28064 8.35587,4.96021 11.91436,-0.6904 z m 99.25042,-4.93402 c 0,-6.27748 -7.4353,-9.61771 -12.34279,-5.54485 -4.53992,3.76781 -4.10986,12.73325 0.66295,13.82003 6.18998,1.40948 11.67984,-2.48008 11.67984,-8.27518 z m 72.88543,3.99694 c 8.72191,-6.51186 10.96099,-15.41715 5.66117,-22.51569 -9.6995,-12.99144 -23.28178,-18.13455 -39.73804,-15.04733 -16.02919,3.0071 -23.57017,17.88744 -15.1541,29.90309 9.09616,12.98656 36.40534,17.23564 49.23097,7.65993 z M 271.83431,443.51009 c 3.17527,-5.4182 5.77322,-10.94588 5.77322,-12.28373 0,-2.96258 -11.1654,-20.13491 -13.09166,-20.13491 -1.55593,0 -11.3961,17.92228 -11.38658,20.7388 0.007,1.99017 11.11734,21.53111 12.24221,21.53111 0.37928,0 3.28753,-4.43307 6.46281,-9.85127 z m 164.84157,-0.16003 c 0,-5.52249 -0.99261,-6.78957 -5.75226,-7.34286 -7.78247,-0.90466 -12.08704,4.36711 -8.71326,10.67108 1.80197,3.36698 4.24415,4.52684 8.49714,4.03549 4.99515,-0.57707 5.96838,-1.77783 5.96838,-7.36371 z m -340.622477,0.42588 c 1.9731,-3.22303 1.59581,-4.66757 -1.896317,-7.26037 -5.010541,-3.72015 -7.739149,-3.27691 -10.925673,1.77478 -1.600637,2.53753 -1.383414,4.62418 0.748836,7.19339 3.664944,4.41598 8.765987,3.69441 12.073154,-1.7078 z M 215.22633,427.88382 c 5.89039,-7.09748 -2.80063,-18.25362 -9.73611,-12.49768 -4.1972,3.48337 -4.6757,12.66749 -0.74267,14.2545 4.96217,2.00228 7.7464,1.53549 10.47878,-1.75682 z m 103.53875,-6.81156 c 0,-5.11721 -1.10623,-6.80131 -4.81457,-7.3296 -5.87881,-0.83748 -9.16957,7.02257 -5.02894,12.01173 4.46889,5.38468 9.84351,2.82821 9.84351,-4.68213 z M 22.531931,363.89795 c 1.208383,-4.62088 -3.61773,-12.87426 -7.528134,-12.87426 -3.617686,0 -4.05059,10.0074 -0.59794,13.82252 4.731938,5.22875 6.56674,5.01464 8.126074,-0.94826 z m 496.151209,-2.86297 c 1.76877,-4.60935 -0.63209,-10.01129 -4.44947,-10.01129 -3.81739,0 -6.21826,5.40194 -4.44946,10.01129 0.70431,1.83541 2.70656,3.3371 4.44946,3.3371 1.74288,0 3.74514,-1.50169 4.44947,-3.3371 z M 90.011666,336.33841 c 0.7517,-1.95889 0.003,-4.40446 -1.66376,-5.43457 -3.513368,-2.17139 -8.741543,1.37615 -8.741543,5.93149 0,4.27028 8.73605,3.85305 10.405303,-0.49692 z m 357.631614,-8.27943 c -2.29214,-5.97318 -9.85503,-4.71129 -9.85503,1.64437 0,2.95702 1.25141,5.84039 2.78091,6.40745 4.10103,1.52045 8.72689,-3.74474 7.07412,-8.05182 z M 196.4048,316.50986 c 0,-2.88885 -1.73326,-4.66515 -5.00564,-5.12989 -3.6864,-0.52355 -5.00565,0.40481 -5.00565,3.52248 0,2.32838 0.70203,4.93544 1.56006,5.79347 2.9512,2.95119 8.45123,0.22694 8.45123,-4.18606 z m 142.0126,-2.0316 c 0.66998,-1.74592 -0.27428,-4.41304 -2.09836,-5.92688 -2.66997,-2.2159 -3.99662,-2.07236 -6.80519,0.73621 -1.91879,1.91878 -2.8106,4.58588 -1.98179,5.9269 2.16304,3.49986 9.4489,3.00708 10.88534,-0.73623 z m -90.28757,60.99525 c -3.13064,-1.94884 -3.89328,-5.60289 -3.89328,-18.65373 0,-20.88845 2.55481,-23.58064 22.42249,-23.62801 15.60432,-0.0372 17.91998,-0.90669 21.73911,-8.16243 4.20786,-7.99431 2.91159,-9.75296 -2.90294,-3.93841 -4.89851,4.89852 -7.31512,5.46071 -23.4732,5.46071 h -18.0125 l -3.22359,7.7151 c -1.77296,4.24332 -3.22357,10.25009 -3.22357,13.34839 0,7.62618 -7.10524,7.50302 -13.18692,-0.22857 -3.56787,-4.53581 -4.61094,-9.06522 -4.61094,-20.02259 0,-20.17057 3.34477,-23.05965 26.69679,-23.05965 10.38209,0 17.79786,-0.92698 17.79786,-2.22473 0,-1.22361 -4.50509,-2.22473 -10.0113,-2.22473 -9.58624,0 -10.01129,-0.27663 -10.01129,-6.51529 0,-10.98793 5.28282,-14.08802 22.36247,-13.12294 18.85094,1.06516 22.13217,3.68723 22.13217,17.68589 v 10.85126 h 8.85655 c 7.77853,0 9.05737,0.74469 10.5065,6.11802 2.34369,8.6904 1.57239,25.83979 -1.41304,31.41815 -2.29492,4.28808 -4.41111,4.73374 -22.47774,4.73374 -11.81306,0 -19.94432,0.90702 -19.94432,2.22473 0,1.2236 5.50621,2.22473 12.23602,2.22473 h 12.23603 v 7.51417 c 0,4.13277 -1.41546,8.68887 -3.14548,10.12466 -4.3532,3.61283 -32.58628,5.39289 -37.45588,2.36153 z m 35.75883,-9.61724 c 0.48501,-2.50078 -0.78317,-3.70892 -3.89328,-3.70892 -2.53691,0 -4.61258,1.33484 -4.61258,2.9663 0,6.8138 7.20642,7.44295 8.50586,0.74262 z m -27.05085,-73.93752 c 1.75338,-4.56925 -1.76582,-7.98408 -5.71367,-5.54417 -3.36217,2.07794 -1.81365,9.03081 2.01134,9.03081 1.3004,0 2.96645,-1.56899 3.70233,-3.48664 z M 458.75588,282.8456 C 414.97306,248.51618 354.41523,218.86941 318.28522,214.07659 l -10.8293,-1.43655 -5.99143,17.4668 c -3.29527,9.60675 -6.63515,21.72161 -7.42195,26.92193 -1.22016,8.0644 -2.2068,9.45511 -6.70806,9.45511 -4.08025,0 -5.27749,-1.2053 -5.27749,-5.31295 0,-7.44503 10.31248,-42.21837 15.5859,-52.5551 4.14966,-8.13402 4.8436,-8.53761 12.7553,-7.41825 31.17858,4.41119 74.705,20.68306 108.44331,40.54031 20.25656,11.92234 61.21666,41.68378 61.21666,44.47976 0,1.98479 -4.81181,6.96301 -6.73028,6.96301 -0.765,0 -7.3224,-4.65078 -14.572,-10.33506 z m -416.413781,-0.0373 c -3.897499,-1.57269 -3.478209,-11.13138 0.556183,-12.67953 7.511225,-2.88232 14.652522,5.22349 9.777271,11.09781 -2.59632,3.12837 -5.426743,3.56162 -10.333454,1.58172 z m 437.950081,-1.58172 c -4.87526,-5.87432 2.26605,-13.98013 9.77728,-11.09781 4.42025,1.69623 4.28677,11.08773 -0.18199,12.80253 -5.15844,1.97948 -6.77622,1.69207 -9.59531,-1.70472 z M 60.85505,262.98787 c -1.922805,-1.9228 -3.496009,-4.35412 -3.496009,-5.40292 0,-2.03052 6.245398,-8.89893 8.09173,-8.89893 0.604842,0 3.036156,1.03635 5.40292,2.30301 5.536344,2.96296 5.536344,10.22888 0,13.19185 -5.565297,2.97845 -5.862666,2.94296 -9.998641,-1.19301 z m 199.27774,0.54826 c -4.15495,-5.00643 -0.65374,-10.7456 6.07911,-9.96481 4.55916,0.52872 5.8338,1.89175 5.8338,6.23836 0,6.47644 -7.64572,8.86807 -11.91291,3.72645 z m 201.57133,0.54481 c -5.17835,-3.01611 -4.95272,-10.22191 0.40993,-13.09191 2.36676,-1.26666 4.79808,-2.30301 5.40292,-2.30301 1.84632,0 8.09173,6.86841 8.09173,8.89893 0,2.29926 -6.37976,8.92636 -8.50166,8.83127 -0.83029,-0.0371 -3.26161,-1.08807 -5.40292,-2.33528 z M 85.930966,244.34365 c -4.231692,-3.47305 -4.751499,-5.03644 -2.763113,-8.31046 3.634522,-5.98451 13.38173,-6.44942 16.41435,-0.78291 2.778467,5.19161 1.716777,7.93596 -4.32003,11.16676 -3.098577,1.6583 -5.410197,1.14466 -9.331207,-2.07339 z m 173.980334,1.12773 c -4.25075,-5.12184 -1.97895,-13.36241 3.9141,-14.19781 9.84008,-1.39493 14.80382,7.17402 8.06139,13.91644 -4.35761,4.35762 -8.51149,4.45521 -11.97549,0.28137 z m 175.56265,-0.85999 c -4.21251,-3.41108 -4.56397,-4.73549 -2.35306,-8.86664 4.60057,-8.59624 20.7063,-3.95331 17.27794,4.98085 -2.44578,6.37364 -9.56385,8.22688 -14.92488,3.88579 z m -322.05166,-16.3929 c -5.83557,-5.83557 -1.63467,-17.35291 6.32939,-17.35291 4.02539,0 11.02352,6.71894 11.02352,10.58374 0,7.28268 -12.11391,12.00817 -17.35291,6.76917 z m 292.26625,-0.82633 c -4.58357,-4.58356 -4.4166,-8.32964 0.57245,-12.84468 7.2757,-6.58441 15.95413,-3.14146 15.95413,6.32939 0,9.36869 -9.80697,13.2349 -16.52658,6.51529 z m -145.87887,-7.62765 c -2.4472,-2.44721 -4.44946,-5.4506 -4.44946,-6.6742 0,-2.95965 8.27135,-11.12366 11.26991,-11.12366 9.77766,0 14.47053,11.76218 7.4814,18.75131 -4.68696,4.68696 -8.94532,4.40307 -14.30185,-0.95345 z m -118.86426,-5.72074 c -7.11433,-7.11433 -2.77021,-16.52658 7.62765,-16.52658 6.68189,0 11.12366,3.66763 11.12366,9.18496 0,5.05939 -5.93074,10.83762 -11.12366,10.83762 -2.2724,0 -5.70485,-1.5732 -7.62765,-3.496 z m 235.82162,0 c -7.11434,-7.11433 -2.77022,-16.52658 7.62765,-16.52658 6.68189,0 11.12366,3.66763 11.12366,9.18496 0,5.05939 -5.93074,10.83762 -11.12366,10.83762 -2.27241,0 -5.70486,-1.5732 -7.62765,-3.496 z M 171.87178,201.89928 c -6.29963,-6.96102 -2.23105,-16.38915 7.47685,-17.3261 8.73834,-0.84336 13.71908,2.68564 13.71908,9.72041 0,11.2473 -13.51237,16.09592 -21.19593,7.60569 z m 171.52426,1.02083 c -4.36719,-4.36719 -4.52548,-12.90265 -0.30423,-16.40597 1.75547,-1.45691 6.49275,-2.33034 10.5273,-1.94096 5.66893,0.54713 7.81595,2.08268 9.45004,6.75862 3.9774,11.3814 -11.0363,20.22511 -19.67311,11.58831 z m -134.26726,-6.64639 c -5.77239,-4.04314 -6.66579,-14.57514 -1.59346,-18.7848 4.90393,-4.06991 14.77506,-3.38273 18.17369,1.26517 8.34977,11.419 -5.06009,25.58865 -16.58023,17.51963 z m 102.47248,1.19876 c -9.5207,-3.83096 -8.55567,-20.19094 1.34372,-22.77969 12.66213,-3.31122 21.57896,14.09688 11.01193,21.49831 -5.71923,4.0059 -5.61226,3.99481 -12.35565,1.28138 z m -52.9505,-2.1106 c -10.64469,-2.41337 -18.28147,-8.5856 -23.20389,-18.75397 -5.62706,-11.62394 -5.66525,-17.59539 -0.18976,-29.65741 10.38556,-22.87836 41.84414,-27.1924 57.73249,-7.91709 21.36779,25.92285 -1.68166,63.73254 -34.33886,56.32847 z m -4.24401,-79.20632 c -4.24134,-4.24133 -4.85185,-27.62922 -0.82633,-31.65475 1.51725,-1.51724 8.78311,-2.66968 16.83175,-2.66968 18.17259,0 22.37807,-2.3367 24.15013,-13.41861 2.79327,-17.46816 16.41621,-7.76817 16.41621,11.68889 0,16.00057 -4.62097,19.52757 -25.58442,19.52757 -9.6405,0 -16.68549,0.93933 -16.68549,2.22474 0,1.2236 4.50508,2.22473 10.0113,2.22473 9.55822,0 10.01129,0.29127 10.01129,6.43617 0,7.70438 -2.96853,9.13695 -18.93327,9.13695 -7.84748,0 -13.08479,-1.18962 -15.39117,-3.49601 z m 29.45637,-4.82119 c -1.11684,-5.79929 -8.48032,-6.44605 -8.48032,-0.74485 0,3.18381 1.42879,4.61259 4.61258,4.61259 3.18381,0 4.38188,-1.19806 3.86774,-3.86774 z M 230.83309,89.47286 c -2.7905,-7.33956 -2.74076,-12.52421 0.19422,-20.24383 3.30186,-8.68456 5.49865,-9.57255 23.77669,-9.61115 9.24704,-0.0195 16.12933,-0.98335 16.12933,-2.2588 0,-1.22361 -4.50508,-2.22473 -10.01129,-2.22473 -9.61156,0 -10.0113,-0.26308 -10.0113,-6.58845 0,-5.8158 1.05495,-6.87251 8.99566,-9.01072 5.57191,-1.50037 12.55744,-1.7179 18.35404,-0.57157 l 9.35838,1.8507 v 15.50276 15.50276 l -16.33004,1.11237 c -13.72115,0.93465 -17.00886,1.95145 -20.57877,6.36448 -2.33682,2.88866 -4.24873,7.64402 -4.24873,10.56747 0,4.43248 -1.11775,5.31537 -6.72926,5.31537 -5.17637,0 -7.22996,-1.31691 -8.89893,-5.70666 z m 33.42605,-41.01271 c 0,-5.18245 -7.73148,-6.25125 -9.61999,-1.32987 -1.50016,3.90938 0.29277,5.77933 5.54132,5.77933 2.5955,0 4.07867,-1.61798 4.07867,-4.44946 z"
       id="path13989" />
  </g>
</svg>
