<?xml version="1.0" encoding="UTF-8" standalone="no"?>
<svg
   xmlns:dc="http://purl.org/dc/elements/1.1/"
   xmlns:cc="http://creativecommons.org/ns#"
   xmlns:rdf="http://www.w3.org/1999/02/22-rdf-syntax-ns#"
   xmlns:svg="http://www.w3.org/2000/svg"
   xmlns="http://www.w3.org/2000/svg"
   id="svg14023"
   version="1.1"
   viewBox="0 0 270.93333 67.733335"
   height="256"
   width="1024">
  <defs
     id="defs14017" />
  <metadata
     id="metadata14020">
    <rdf:RDF>
      <cc:Work
         rdf:about="">
        <dc:format>image/svg+xml</dc:format>
        <dc:type
           rdf:resource="http://purl.org/dc/dcmitype/StillImage" />
        <dc:title />
      </cc:Work>
    </rdf:RDF>
  </metadata>
  <g
     transform="matrix(-0.125,0,0,0.125,260.58678,45.425007)"
     id="layer1">
    <g
       transform="translate(-28.66907,-106.87106)"
       id="g16913">
      <path
         style="fill:#ff2a2a;fill-opacity:1;stroke:#ff0000;stroke-width:0.26458332px;stroke-linecap:butt;stroke-linejoin:miter;stroke-opacity:1"
         d="m 61.868962,264.42618 153.145448,0.26729 -0.26727,-256.845994 151.44965,0.29188 -1.24418,-75.394621 c 0,0 -2.93997,-21.381561 -14.43254,-33.408685 -11.4926,-12.02713 -38.85207,-22.59963 -59.06658,-26.45969 -53.18663,-10.15626 -99.9588,-9.08718 -155.01633,0.53454 -12.63742,2.20848 -36.08139,9.35443 -51.048479,27.796031 -14.967094,18.441598 -21.648832,34.2105 -21.381562,43.832203 0.267269,9.621702 -2.138157,319.387046 -2.138157,319.387046 z"
         id="path14197" />
      <circle
         style="fill:#ffffff;fill-opacity:1;stroke:none;stroke-width:0.79374999;stroke-miterlimit:4;stroke-dasharray:none;stroke-opacity:1"
         id="path14199"
         cx="300.05096"
         cy="-59.518368"
         r="30.238094" />
      <path
         style="fill:#000000;fill-opacity:1;stroke:none;stroke-width:0.26458332px;stroke-linecap:butt;stroke-linejoin:miter;stroke-opacity:1"
         d="m 229.33705,26.652511 c 0,0 7.27604,-10.48885 16.72545,-9.732882 9.4494,0.755941 11.33928,2.456841 11.52827,9.449408 0.18899,6.992541 1.88988,17.953858 0.18899,22.489583 -1.70089,4.535699 -6.23661,7.370525 -10.96131,7.9375 -4.7247,0.566949 -11.1503,-2.645833 -13.41815,-3.96875 -2.26786,-1.322916 -3.02381,-3.779784 -3.02381,-3.779784 0,0 -3.02381,4.535725 -6.80358,4.724717 -3.77976,0.188992 -6.55006,0.546947 -8.82185,-0.65577 -2.27179,-1.202716 -4.00904,-1.870895 -4.00904,-1.870895 0,0 -3.34087,7.617195 -7.61718,10.557166 -4.27631,2.939944 -10.28988,5.211736 -17.10525,4.543584 -6.81537,-0.668179 -12.6953,-2.672715 -14.03165,-6.54812 -1.33635,-3.875405 -1.20271,-16.570695 -1.20271,-20.713382 0,-4.142687 -0.13364,-9.220809 0,-12.160753 0.13363,-2.939971 0.26727,-5.7463 2.93996,-7.884451 2.6727,-2.138177 7.08264,-3.74179 14.83346,-3.340894 7.75082,0.400923 13.36348,3.60815 16.03617,6.949017 2.6727,3.340867 3.87541,5.612659 3.87541,5.612659 0,0 3.96318,-3.354308 7.20956,-4.015767 3.27361,-0.667007 6.05696,-0.810103 8.77126,-0.182267 2.7143,0.627836 4.886,2.590081 4.886,2.590081 z"
         id="path16882" />
      <path
         style="fill:#000000;fill-opacity:1;stroke:none;stroke-width:3;stroke-miterlimit:4;stroke-dasharray:none;stroke-opacity:1"
         d="M 1128.9004,1000.7266 A 182.661,182.661 0 0 0 952.71094,1135.3535 L 337.14258,1135 234.28516,1178.5723 c 0,0 -14.286,15.7129 -2.85743,40.7129 11.42857,25 30,27.1425 30,27.1425 l 97.85743,-38.5703 588.38672,-2.7929 a 182.661,182.661 0 0 0 181.22852,160.9843 182.661,182.661 0 0 0 182.6621,-182.6621 182.661,182.661 0 0 0 -0.6328,-12.6426 55.381768,55.381768 0 0 0 18.4258,3.2168 55.381768,55.381768 0 0 0 55.3828,-55.3828 55.381768,55.381768 0 0 0 -5.8145,-24.6523 88.716802,88.716802 0 0 1 6.5567,-0.2656 88.716802,88.716802 0 0 1 88.7168,88.7168 88.716802,88.716802 0 0 1 -88.7168,88.7168 88.716802,88.716802 0 0 1 -4.6875,-0.2344 l 0.7832,47.5039 a 138.21428,138.21428 0 0 0 5.9238,0.209 138.21428,138.21428 0 0 0 138.2148,-138.2149 138.21428,138.21428 0 0 0 -138.2148,-138.2148 138.21428,138.21428 0 0 0 -62.4922,15.0976 c 1.8444,1.9397 3.6232,3.9497 5.3516,6.0078 a 55.381768,55.381768 0 0 0 -1.0039,-0.051 55.381768,55.381768 0 0 0 -45.4922,23.9082 182.661,182.661 0 0 0 -154.9629,-86.3789 z m 0,55.5586 a 127.1026,127.1026 0 0 1 127.1035,127.1015 127.1026,127.1026 0 0 1 -127.1035,127.1035 127.1026,127.1026 0 0 1 -127.1016,-127.1035 127.1026,127.1026 0 0 1 127.1016,-127.1015 z"
         transform="matrix(0.26458333,0,0,0.26458333,0,-380.33335)"
         id="path16888" />
    </g>
  </g>
  <g
     transform="translate(2.6458334)"
     id="text7214"
     style="font-style:normal;font-variant:normal;font-weight:normal;font-stretch:normal;font-size:31.75px;line-height:1.25;font-family:'Humor Sans';-inkscape-font-specification:'Humor Sans';text-align:center;letter-spacing:0px;word-spacing:0px;text-anchor:middle;fill:#000000;fill-opacity:1;stroke:none;stroke-width:0.26458332"
     aria-label="Machine Learning">
    <path
       id="path7218"
       style="font-size:31.75px;text-align:center;text-anchor:middle;stroke-width:0.26458332"
       d="M 38.437614,7.1241131 38.282585,7.6202068 V 20.580656 l -0.186035,0.5271 -1.364258,1.364257 -0.496094,0.15503 -0.527099,-0.15503 -0.682129,-0.682128 -0.155029,-0.5271 v -7.503418 l 0.155029,-0.496094 0.341064,-0.341064 0.186036,-0.5271 V 6.255949 L 35.368034,5.7598553 34.871941,5.5738201 34.344841,5.7598553 32.298454,7.806242 32.143425,8.3023357 31.95739,8.8294353 29.911003,10.875822 29.414909,11.030851 H 28.73278 l -0.527099,0.186036 -0.341065,0.341064 h -0.341064 l -0.341065,-0.341064 -0.496093,-0.186036 h -0.682129 l -0.5271,-0.155029 -1.023193,-1.0231933 -0.496094,-0.1860351 -0.527099,0.1860351 -0.682129,0.6821293 -0.15503,0.496093 v 1.364258 l 0.15503,0.5271 0.341064,0.341064 0.186035,0.496094 v 4.774902 l 0.15503,0.5271 0.341064,0.341064 0.186035,0.496094 v 1.364258 l -0.186035,0.5271 -0.682129,0.682128 -0.496094,0.15503 h -0.682129 l -0.527099,-0.15503 -0.682129,-0.682128 -0.155029,-0.5271 v -6.13916 l -0.186036,-0.496094 -0.341064,-0.341064 -0.155029,-0.5271 V 7.6202068 L 20.020134,7.1241131 20.361198,6.7830486 20.547234,6.255949 20.702263,5.7598553 21.229362,5.5738201 h 0.682129 l 0.496094,0.1860352 0.341065,0.3410644 0.527099,0.1550293 0.496094,0.1860352 1.023193,1.0231933 0.5271,0.1550293 0.496094,0.1860352 0.341064,0.3410644 0.5271,0.1550293 0.496093,0.1860352 0.341065,0.3410644 h 0.341064 l 0.341065,-0.3410644 0.527099,-0.1860352 0.496094,-0.1550293 0.186035,-0.5270996 0.15503,-0.4960937 0.341064,-0.3410645 0.186035,-0.5270996 0.15503,-0.4960937 2.728515,-2.7285157 0.5271,-0.1860351 h 2.046387 l 0.496093,0.1860351 0.341065,0.3410645 0.527099,0.1550293 0.496094,0.1860352 0.682129,0.6821289 0.186035,0.4960937 0.155029,0.5270996 0.341065,0.3410645 0.186035,0.4960937 -0.186035,0.5270996 z" />
    <path
       id="path7220"
       style="font-size:31.75px;text-align:center;text-anchor:middle;stroke-width:0.26458332"
       d="M 52.54528,11.71298 V 11.030851 L 52.359245,10.534758 51.336052,9.5115643 51.181023,8.9844646 V 8.3023357 L 50.994987,7.806242 50.653923,7.4651775 50.498894,6.9380779 50.312859,6.4419842 48.948601,5.0777264 48.452507,4.8916912 47.925407,5.0777264 47.584343,5.4187908 47.088249,5.5738201 46.56115,5.7598553 46.40612,6.255949 v 0.6821289 l -0.186035,0.5270996 -0.341064,0.3410645 -0.15503,0.4960937 v 2.0463863 l -0.186035,0.5271 -0.341064,0.341065 -0.15503,0.496093 v 0.682129 l 0.15503,0.5271 0.682129,0.682129 0.527099,0.155029 h 1.364258 l 0.496094,-0.155029 0.341064,-0.341065 0.5271,-0.186035 0.496094,-0.155029 0.341064,-0.341065 0.5271,-0.186035 h 1.364258 l 0.496093,-0.155029 z m 3.565674,11.782227 -0.341064,0.341064 h -0.341065 l -0.682129,-0.682129 -0.155029,-0.527099 -0.186035,-0.496094 -0.341064,-0.341064 -0.15503,-0.5271 v -0.682129 l -0.186035,-0.496094 -0.341064,-0.341064 -0.15503,-0.5271 V 17.85214 L 53.041374,17.356047 52.70031,17.014982 52.54528,16.487883 52.359245,15.991789 51.863152,15.805754 h -1.364258 l -0.5271,0.186035 -0.341064,0.341064 -0.496094,0.15503 h -0.682129 l -0.5271,0.186035 -0.341064,0.341064 -0.496094,0.15503 h -1.364258 l -0.527099,0.186035 -0.682129,0.682129 -0.155029,0.496093 v 1.364258 l -0.186036,0.5271 -0.341064,0.341064 -0.155029,0.496094 v 2.728516 L 43.49157,24.5184 42.995476,24.673429 h -0.682129 l -0.5271,-0.155029 -0.682129,-0.682129 -0.155029,-0.527099 v -1.364258 l 0.155029,-0.496094 0.341065,-0.341064 0.186035,-0.5271 v -8.185547 l 0.155029,-0.496094 0.341065,-0.341064 0.186035,-0.5271 V 9.6665936 L 42.468376,9.1704998 42.809441,8.8294353 42.995476,8.3023357 V 6.9380779 L 43.150505,6.4419842 43.49157,6.1009197 43.677605,5.5738201 43.832634,5.0777264 47.243279,1.6670818 47.770378,1.4810467 h 2.046387 l 0.496094,0.1860351 1.364257,1.3642578 0.186036,0.4960938 0.155029,0.5270996 1.023193,1.0231934 0.186035,0.4960937 0.15503,0.5270996 0.341064,0.3410645 0.186035,0.4960937 0.15503,0.5270996 0.341064,0.3410645 0.186035,0.4960937 v 0.6821289 l 0.155029,0.5270997 0.341065,0.3410644 0.186035,0.4960933 v 2.728516 l 0.155029,0.5271 0.341065,0.341064 0.186035,0.496094 v 2.046387 l 0.155029,0.527099 0.341065,0.341065 0.186035,0.496093 v 4.774903 l -0.186035,0.527099 z" />
    <path
       id="path7222"
       style="font-size:31.75px;text-align:center;text-anchor:middle;stroke-width:0.26458332"
       d="m 74.466423,20.084562 -0.155029,0.496094 -0.186035,0.5271 -1.364258,1.364257 -0.496094,0.15503 -0.5271,0.186035 -0.341064,0.341064 -0.496094,0.15503 h -4.774902 l -0.5271,-0.15503 -0.341064,-0.341064 -0.496094,-0.186035 -0.5271,-0.15503 -0.341064,-0.341064 -0.496094,-0.186035 -0.527099,-0.155029 -2.728516,-2.728516 -0.155029,-0.5271 -0.186035,-0.496093 -0.341065,-0.341065 -0.155029,-0.527099 -0.186035,-0.496094 -0.341065,-0.341065 -0.155029,-0.527099 V 11.71298 l 0.155029,-0.496093 0.341065,-0.341065 0.186035,-0.5271 0.155029,-0.4960933 1.023193,-1.0231934 0.186036,-0.5270996 0.155029,-0.4960937 4.092773,-4.0927734 0.5271,-0.1860352 0.496094,-0.1550293 0.341064,-0.3410645 0.5271,-0.1860351 h 0.682129 l 0.496093,-0.1550293 0.341065,-0.3410645 0.527099,-0.1860351 h 0.682129 l 0.496094,0.1860351 0.341065,0.3410645 0.527099,0.1550293 0.496094,0.1860351 1.364258,1.3642579 0.186035,0.4960937 V 5.5738201 L 72.761101,6.1009197 72.078972,6.7830486 H 71.737907 L 70.714714,5.7598553 70.21862,5.5738201 h -1.364258 l -0.527099,0.1860352 -0.341065,0.3410644 -0.496093,0.1550293 -0.5271,0.1860352 -3.410644,3.4106445 -0.15503,0.4960933 -0.186035,0.5271 -0.341064,0.341065 -0.15503,0.496093 -0.186035,0.5271 -0.341064,0.341064 -0.15503,0.496094 -0.186035,0.5271 -0.341064,0.341064 v 0.341065 l 0.341064,0.341064 0.186035,0.496094 v 0.682129 l 0.15503,0.527099 1.023193,1.023194 0.186035,0.496093 0.15503,0.5271 1.364257,1.364258 0.5271,0.155029 0.496094,0.186035 0.341064,0.341065 0.5271,0.155029 h 0.682129 l 0.496093,0.186035 0.341065,0.341065 0.527099,0.155029 0.496094,-0.155029 0.341065,-0.341065 0.527099,-0.186035 0.496094,-0.155029 1.023193,-1.023194 0.5271,-0.186035 0.496094,-0.155029 0.186035,-0.5271 0.155029,-0.496093 0.5271,-0.186036 h 0.682129 l 0.496093,0.186036 0.186036,0.496093 v 0.682129 l -0.186036,0.5271 z" />
    <path
       id="path7224"
       style="font-size:31.75px;text-align:center;text-anchor:middle;stroke-width:0.26458332"
       d="m 93.504021,13.945402 -0.15503,0.496094 v 7.503418 l -0.186035,0.527099 -0.496094,0.15503 -0.527099,0.186035 -0.341065,0.341064 h -0.341064 l -0.155029,-0.527099 -0.186035,-0.496094 -0.341065,-0.341064 -0.155029,-0.5271 v -4.092773 l -0.186035,-0.496094 -0.496094,-0.186035 h -2.728516 l -0.527099,0.186035 -0.341065,0.341064 -0.496094,0.15503 H 81.7528 l -0.5271,0.186035 -0.341064,0.341064 -0.496094,0.155029 -0.527099,0.186036 -0.682129,0.682128 -0.15503,0.496094 v 4.774903 l -0.186035,0.527099 -0.496094,0.155029 -0.527099,0.186036 -0.341065,0.341064 h -0.341064 l -0.155029,-0.5271 V 10.348722 L 77.132927,9.8526287 77.473991,9.5115643 77.660027,8.9844646 V 4.8916912 l 0.155029,-0.4960937 0.527099,-0.1860352 h 0.682129 l 0.496094,0.1860352 0.186035,0.4960937 v 5.4570308 l -0.186035,0.5271 -0.341064,0.341065 -0.15503,0.496093 v 2.046387 l 0.15503,0.5271 0.682129,0.682129 0.527099,0.155029 h 2.728516 l 0.496094,-0.155029 0.341064,-0.341065 0.5271,-0.186035 h 4.092773 l 0.496094,-0.155029 0.341064,-0.341065 0.5271,-0.186035 0.496094,-0.155029 0.682129,-0.682129 0.186035,-0.5271 v -6.13916 l 0.155029,-0.4960937 0.5271,-0.1860352 0.496093,0.1860352 0.682129,0.6821289 0.186035,0.4960937 v 5.4570311 l 0.15503,0.5271 0.341064,0.341064 v 0.341065 z" />
    <path
       id="path7226"
       style="font-size:31.75px;text-align:center;text-anchor:middle;stroke-width:0.26458332"
       d="m 100.94543,12.581144 -0.15503,0.496094 v 6.13916 l -0.18604,0.5271 -0.34106,0.341064 -0.15503,0.496094 v 2.728516 l -0.186036,0.527099 -1.364258,1.364258 -0.496094,0.155029 h -1.364258 l -0.527099,-0.155029 -0.15503,-0.5271 v -5.457031 l 0.15503,-0.496094 0.341064,-0.341064 0.186035,-0.5271 v -1.364257 l 0.15503,-0.496094 0.341064,-0.341065 0.186035,-0.527099 V 9.6665936 L 97.534782,9.1704998 97.875847,8.8294353 98.061882,8.3023357 V 7.6202068 L 97.875847,7.1241131 97.534782,6.7830486 97.379753,6.255949 V 5.5738201 l 0.155029,-0.4960937 0.341065,-0.3410645 0.186035,-0.5270996 0.155029,-0.4960937 0.5271,-0.1860352 h 1.364259 l 0.49609,0.1860352 0.68213,0.6821289 0.18604,0.4960937 V 11.71298 l -0.18604,0.5271 z" />
    <path
       id="path7228"
       style="font-size:31.75px;text-align:center;text-anchor:middle;stroke-width:0.26458332"
       d="m 120.66515,5.0777264 -0.15503,0.4960937 v 3.4106445 l -0.18603,0.5270997 -0.34107,0.3410644 -0.15502,0.4960933 v 4.774903 l -0.18604,0.527099 -0.34106,0.341065 -0.15503,0.496094 v 0.682129 l -0.18604,0.527099 -0.34106,0.341065 -0.15503,0.496093 -0.18604,0.5271 -1.36426,1.364258 -0.49609,0.155029 h -0.68213 l -0.5271,-0.155029 -2.04638,-2.046387 -0.15503,-0.5271 -0.18604,-0.496093 -3.06958,-3.06958 -0.15503,-0.5271 -0.18603,-0.496094 -1.36426,-1.364258 -0.4961,-0.186035 -0.52709,0.186035 -0.68213,0.682129 -0.15503,0.496094 v 12.27832 l -0.18604,0.5271 -0.68213,0.682129 h -0.34106 l -1.36426,-1.364258 -0.15503,-0.5271 v -12.27832 l 0.15503,-0.496094 0.34107,-0.341064 0.18603,-0.5271 V 4.8916912 l 0.15503,-0.4960937 0.5271,-0.1860352 h 1.36426 l 0.49609,0.1860352 0.68213,0.6821289 0.18603,0.4960937 0.15503,0.5270996 1.70533,1.7053223 0.18603,0.4960937 0.15503,0.5270996 0.34107,0.3410645 0.18603,0.4960938 0.15503,0.5270994 1.02319,1.023194 0.18604,0.496093 0.15503,0.5271 2.72851,2.728516 0.5271,0.155029 h 0.68213 l 0.4961,-0.155029 0.18603,-0.5271 v -2.046387 l 0.15503,-0.496094 0.34106,-0.341064 0.18604,-0.5271 V 4.2095623 l 0.15503,-0.4960937 0.34106,-0.3410645 0.18604,-0.5270996 0.15503,-0.4960938 0.5271,-0.1860351 h 1.36426 l 0.49609,0.1860351 0.18603,0.4960938 0.15503,0.5270996 0.34107,0.3410645 0.18603,0.4960937 -0.18603,0.5270996 z" />
    <path
       id="path7230"
       style="font-size:31.75px;text-align:center;text-anchor:middle;stroke-width:0.26458332"
       d="m 140.38488,3.7134686 -1.02319,1.0231933 -0.4961,0.1550293 h -6.13916 l -0.5271,0.1860352 -0.34106,0.3410644 -0.4961,0.1550293 h -2.04638 l -0.5271,0.1860352 -1.36426,1.3642578 -0.15503,0.4960937 v 1.3642578 l 0.15503,0.5270997 0.68213,0.6821287 0.5271,0.155029 h 6.82129 l 0.49609,0.186036 0.68213,0.682129 v 0.341064 l -1.36426,1.364258 -0.49609,0.155029 h -0.68213 l -0.5271,0.186035 -0.34106,0.341065 -0.4961,0.155029 h -2.04638 l -0.5271,-0.155029 -0.34107,-0.341065 -0.49609,-0.186035 h -1.36426 l -0.5271,0.186035 -0.15503,0.496094 -0.18603,0.5271 -0.34107,0.341064 -0.15503,0.496094 v 2.728515 l 0.15503,0.5271 0.5271,0.155029 0.4961,0.186035 0.34106,0.341065 0.5271,0.155029 0.49609,-0.155029 0.34107,-0.341065 0.5271,-0.186035 h 7.50342 l 0.49609,0.186035 0.18603,0.496094 -0.18603,0.5271 -1.36426,1.364258 -0.49609,0.155029 h -2.72852 l -0.5271,0.186035 -0.34106,0.341065 -0.4961,0.155029 h -5.45703 l -0.5271,0.186035 -0.34106,0.341064 -0.4961,0.15503 h -0.68212 l -0.5271,-0.15503 -0.68213,-0.682128 -0.15503,-0.5271 v -2.728516 l 0.15503,-0.496093 0.34106,-0.341065 0.18604,-0.527099 v -3.410645 l 0.15503,-0.496094 0.34106,-0.341064 0.18604,-0.5271 V 7.6202068 L 124.35485,7.1241131 124.01379,6.7830486 123.85876,6.255949 V 5.5738201 l 0.15503,-0.4960937 1.36425,-1.3642578 0.5271,-0.1860352 0.4961,-0.1550293 0.34106,-0.3410645 0.5271,-0.1860351 h 2.72852 l 0.49609,-0.1550293 0.34107,-0.3410645 0.52709,-0.1860351 h 8.18555 l 0.4961,0.1860351 0.68212,0.6821289 v 0.3410645 z" />
    <path
       id="path7232"
       style="font-size:31.75px;text-align:center;text-anchor:middle;stroke-width:0.26458332"
       d="m 24.826042,60.454191 -0.341064,0.341065 -0.496094,0.155029 h -6.821289 l -0.5271,0.186035 -0.341064,0.341065 -0.496094,0.155029 h -0.682129 l -0.527099,0.186035 -0.341065,0.341064 -0.496094,0.15503 h -2.046386 l -0.5271,-0.15503 -0.682129,-0.682128 -0.155029,-0.5271 V 43.897062 l 0.155029,-0.496093 0.682129,-0.682129 0.5271,-0.186036 h 0.682129 l 0.496093,0.186036 0.186035,0.496093 v 15.006836 l 0.15503,0.5271 0.527099,0.155029 h 0.682129 l 0.496094,-0.155029 0.341064,-0.341065 0.5271,-0.186035 h 6.821289 l 0.496094,-0.155029 0.341064,-0.341064 0.5271,-0.186036 h 0.682129 l 0.496094,0.186036 0.186035,0.496093 v 1.364258 l -0.186035,0.5271 z" />
    <path
       id="path7234"
       style="font-size:31.75px;text-align:center;text-anchor:middle;stroke-width:0.26458332"
       d="m 44.545769,43.400969 -1.023194,1.023193 -0.496093,0.155029 h -6.139161 l -0.527099,0.186035 -0.341065,0.341065 -0.496093,0.155029 h -2.046387 l -0.5271,0.186035 -1.364257,1.364258 -0.15503,0.496094 v 1.364258 l 0.15503,0.527099 0.682128,0.682129 0.5271,0.155029 h 6.821289 l 0.496094,0.186036 0.682129,0.682129 v 0.341064 l -1.364258,1.364258 -0.496094,0.155029 h -0.682129 l -0.527099,0.186035 -0.341065,0.341065 -0.496094,0.155029 h -2.046386 l -0.5271,-0.155029 -0.341064,-0.341065 -0.496094,-0.186035 h -1.364258 l -0.527099,0.186035 -0.15503,0.496094 -0.186035,0.5271 -0.341064,0.341064 -0.15503,0.496094 v 2.728515 l 0.15503,0.5271 0.527099,0.155029 0.496094,0.186035 0.341064,0.341065 0.5271,0.155029 0.496094,-0.155029 0.341064,-0.341065 0.5271,-0.186035 h 7.503418 l 0.496094,0.186035 0.186035,0.496094 -0.186035,0.5271 -1.364258,1.364258 -0.496094,0.155029 H 37.56945 l -0.527099,0.186035 -0.341065,0.341065 -0.496093,0.155029 h -5.457032 l -0.527099,0.186035 -0.341065,0.341064 -0.496093,0.15503 h -0.682129 l -0.5271,-0.15503 -0.682129,-0.682128 -0.155029,-0.5271 v -2.728516 l 0.155029,-0.496093 0.341065,-0.341065 0.186035,-0.527099 v -3.410645 l 0.155029,-0.496094 0.341064,-0.341064 0.186036,-0.5271 v -4.774902 l -0.186036,-0.496094 -0.341064,-0.341064 -0.155029,-0.5271 V 45.26132 l 0.155029,-0.496094 1.364258,-1.364257 0.527099,-0.186036 0.496094,-0.155029 0.341065,-0.341064 0.527099,-0.186036 h 2.728516 l 0.496094,-0.155029 0.341064,-0.341064 0.5271,-0.186035 h 8.185547 l 0.496093,0.186035 0.682129,0.682129 v 0.341064 z" />
    <path
       id="path7236"
       style="font-size:31.75px;text-align:center;text-anchor:middle;stroke-width:0.26458332"
       d="M 58.653435,51.40048 V 50.718351 L 58.4674,50.222258 57.444206,49.199064 57.289177,48.671965 v -0.682129 l -0.186035,-0.496094 -0.341065,-0.341064 -0.155029,-0.5271 -0.186035,-0.496094 -1.364258,-1.364258 -0.496094,-0.186035 -0.527099,0.186035 -0.341065,0.341065 -0.496093,0.155029 -0.5271,0.186035 -0.155029,0.496094 v 0.682129 l -0.186036,0.5271 -0.341064,0.341064 -0.155029,0.496094 v 2.046386 l -0.186035,0.5271 -0.341065,0.341065 -0.155029,0.496093 v 0.682129 l 0.155029,0.5271 0.682129,0.682129 0.5271,0.155029 h 1.364257 l 0.496094,-0.155029 0.341065,-0.341065 0.527099,-0.186035 0.496094,-0.155029 0.341064,-0.341065 0.5271,-0.186035 h 1.364258 L 58.4674,51.92758 Z m 3.565674,11.782227 -0.341065,0.341064 H 61.53698 l -0.682129,-0.682129 -0.15503,-0.527099 -0.186035,-0.496094 -0.341064,-0.341064 -0.155029,-0.5271 v -0.682129 l -0.186036,-0.496094 -0.341064,-0.341064 -0.155029,-0.5271 V 57.53964 L 59.149529,57.043547 58.808464,56.702482 58.653435,56.175383 58.4674,55.679289 57.971306,55.493254 h -1.364258 l -0.5271,0.186035 -0.341064,0.341064 -0.496094,0.15503 h -0.682129 l -0.527099,0.186035 -0.341065,0.341064 -0.496093,0.15503 h -1.364258 l -0.5271,0.186035 -0.682129,0.682129 -0.155029,0.496093 v 1.364258 l -0.186035,0.5271 -0.341065,0.341064 -0.155029,0.496094 v 2.728516 L 49.599724,64.2059 49.10363,64.360929 H 48.421501 L 47.894402,64.2059 47.212273,63.523771 47.057243,62.996672 v -1.364258 l 0.15503,-0.496094 0.341064,-0.341064 0.186035,-0.5271 v -8.185547 l 0.15503,-0.496094 0.341064,-0.341064 0.186035,-0.5271 V 49.354094 L 48.57653,48.858 48.917595,48.516935 49.10363,47.989836 v -1.364258 l 0.155029,-0.496094 0.341065,-0.341064 0.186035,-0.5271 0.155029,-0.496094 3.410645,-3.410644 0.527099,-0.186035 h 2.046387 l 0.496094,0.186035 1.364258,1.364258 0.186035,0.496093 0.155029,0.5271 1.023194,1.023193 0.186035,0.496094 0.155029,0.5271 0.341064,0.341064 0.186036,0.496094 0.155029,0.5271 0.341064,0.341064 0.186035,0.496094 v 0.682129 l 0.15503,0.527099 0.341064,0.341065 0.186035,0.496093 v 2.728516 l 0.15503,0.5271 0.341064,0.341064 0.186035,0.496094 v 2.046387 l 0.15503,0.527099 0.341064,0.341065 0.186035,0.496093 v 4.774903 l -0.186035,0.527099 z" />
    <path
       id="path7238"
       style="font-size:31.75px;text-align:center;text-anchor:middle;stroke-width:0.26458332"
       d="m 79.737419,50.036222 v -1.364257 l -0.186035,-0.496094 -0.682129,-0.682129 -0.496094,-0.186035 h -0.682129 l -0.527099,-0.155029 -0.341065,-0.341065 -0.496093,-0.186035 -0.5271,-0.155029 -0.341064,-0.341065 -0.496094,-0.186035 h -4.092774 l -0.527099,0.186035 -0.341065,0.341065 -0.496093,0.155029 -0.5271,0.186035 -1.364258,1.364258 -0.155029,0.496094 0.155029,0.527099 0.341065,0.341065 0.186035,0.496093 0.155029,0.5271 0.341064,0.341065 0.186036,0.496093 v 0.682129 l 0.155029,0.5271 0.682129,0.682129 h 0.341064 l 1.705323,-1.705323 0.527099,-0.186035 h 1.364258 l 0.496094,-0.155029 0.341064,-0.341064 0.5271,-0.186036 h 4.092773 l 0.496094,-0.155029 z m 3.565674,0.868165 -0.155029,0.496093 -0.186035,0.5271 -0.496094,0.155029 -0.5271,0.186035 -0.341064,0.341065 -0.496094,0.155029 -0.5271,0.186035 -0.341064,0.341065 -0.496094,0.155029 h -2.728515 l -0.5271,0.186035 -0.682129,0.682129 -0.155029,0.496094 v 1.364258 l 0.155029,0.527099 0.5271,0.15503 0.496093,0.186035 4.774903,4.774902 0.186035,0.496094 0.155029,0.527099 0.341065,0.341065 0.186035,0.496094 -0.186035,0.527099 -0.682129,0.682129 -0.496094,0.155029 -0.5271,-0.155029 -1.023193,-1.023193 -0.496094,-0.186035 -0.527099,-0.15503 -7.162354,-7.162353 h -0.341064 l -0.15503,0.496094 v 3.410644 l -0.186035,0.5271 -0.341064,0.341064 -0.15503,0.496094 -0.186035,0.527099 -0.682129,0.682129 -0.496093,0.15503 h -0.682129 l -0.5271,-0.15503 -0.155029,-0.527099 v -0.682129 l 0.155029,-0.496094 0.341065,-0.341064 0.186035,-0.5271 V 58.221769 L 67.955193,57.725676 67.614128,57.384611 67.459099,56.857512 V 56.175383 L 67.273064,55.679289 66.931999,55.338224 66.77697,54.811125 v -0.682129 l -0.186035,-0.496094 -0.341065,-0.341064 -0.155029,-0.5271 v -0.682129 l -0.186035,-0.496094 -0.341065,-0.341064 -0.155029,-0.5271 v -0.682129 l -0.186035,-0.496093 -0.341065,-0.341065 -0.155029,-0.527099 v -2.046387 l 0.155029,-0.496094 2.728516,-2.728515 0.5271,-0.186036 h 0.682129 l 0.496093,-0.155029 0.341065,-0.341064 0.527099,-0.186036 h 5.457032 l 0.496093,0.186036 0.341065,0.341064 0.5271,0.155029 0.496093,0.186036 0.341065,0.341064 0.527099,0.155029 0.496094,0.186035 0.341065,0.341065 0.527099,0.155029 0.496094,0.186035 2.728516,2.728516 0.186035,0.496094 0.155029,0.527099 0.341064,0.341065 0.186036,0.496094 v 0.682128 l -0.186036,0.5271 z" />
    <path
       id="path7240"
       style="font-size:31.75px;text-align:center;text-anchor:middle;stroke-width:0.26458332"
       d="m 103.02282,44.765226 -0.15503,0.496094 v 3.410645 l -0.18603,0.527099 -0.34107,0.341065 -0.15503,0.496093 v 4.774903 l -0.18603,0.527099 -0.34107,0.341065 -0.15503,0.496094 v 0.682129 l -0.18603,0.527099 -0.34107,0.341065 -0.15503,0.496093 -0.18603,0.5271 -1.364259,1.364258 -0.496094,0.155029 h -0.682129 l -0.5271,-0.155029 -2.046386,-2.046387 -0.15503,-0.5271 -0.186035,-0.496093 -3.06958,-3.06958 -0.155029,-0.5271 -0.186035,-0.496094 -1.364258,-1.364258 -0.496094,-0.186035 -0.5271,0.186035 -0.682129,0.682129 -0.155029,0.496094 v 12.27832 l -0.186035,0.5271 -0.682129,0.682129 h -0.341064 l -1.364258,-1.364258 -0.155029,-0.5271 v -12.27832 l 0.155029,-0.496094 0.341064,-0.341064 0.186035,-0.5271 v -6.13916 l 0.15503,-0.496094 0.527099,-0.186035 h 1.364258 l 0.496094,0.186035 0.682129,0.682129 0.186035,0.496094 0.155029,0.5271 1.705323,1.705322 0.186035,0.496094 0.155029,0.527099 0.341064,0.341065 0.186036,0.496094 0.155029,0.527099 1.023193,1.023194 0.186035,0.496093 0.15503,0.5271 2.728515,2.728516 0.5271,0.155029 h 0.682129 l 0.496094,-0.155029 0.186035,-0.5271 v -2.046387 l 0.155029,-0.496094 0.341065,-0.341064 0.186035,-0.5271 v -6.821289 l 0.155029,-0.496093 0.341064,-0.341065 0.186031,-0.5271 0.15503,-0.496093 0.5271,-0.186035 h 1.36426 l 0.4961,0.186035 0.18603,0.496093 0.15503,0.5271 0.34106,0.341065 0.18604,0.496093 -0.18604,0.5271 z" />
    <path
       id="path7242"
       style="font-size:31.75px;text-align:center;text-anchor:middle;stroke-width:0.26458332"
       d="m 110.46423,52.268644 -0.15503,0.496094 v 6.13916 l -0.18604,0.5271 -0.34106,0.341064 -0.15503,0.496094 v 2.728516 l -0.18604,0.527099 -1.36426,1.364258 -0.49609,0.155029 h -1.36426 l -0.5271,-0.155029 -0.15503,-0.5271 v -5.457031 l 0.15503,-0.496094 0.34107,-0.341064 0.18603,-0.5271 v -1.364257 l 0.15503,-0.496094 0.34107,-0.341065 0.18603,-0.527099 v -5.457031 l 0.15503,-0.496094 0.34107,-0.341065 0.18603,-0.527099 v -0.682129 l -0.18603,-0.496094 -0.34107,-0.341064 -0.15503,-0.5271 V 45.26132 l 0.15503,-0.496094 0.34107,-0.341064 0.18603,-0.5271 0.15503,-0.496093 0.5271,-0.186036 h 1.36426 l 0.49609,0.186036 0.68213,0.682128 0.18604,0.496094 v 6.821289 l -0.18604,0.5271 z" />
    <path
       id="path7244"
       style="font-size:31.75px;text-align:center;text-anchor:middle;stroke-width:0.26458332"
       d="m 130.18395,44.765226 -0.15503,0.496094 v 3.410645 l -0.18603,0.527099 -0.34107,0.341065 -0.15503,0.496093 v 4.774903 l -0.18603,0.527099 -0.34107,0.341065 -0.15502,0.496094 v 0.682129 l -0.18604,0.527099 -0.34106,0.341065 -0.15503,0.496093 -0.18604,0.5271 -1.36426,1.364258 -0.49609,0.155029 h -0.68213 l -0.5271,-0.155029 -2.04639,-2.046387 -0.15502,-0.5271 -0.18604,-0.496093 -3.06958,-3.06958 -0.15503,-0.5271 -0.18603,-0.496094 -1.36426,-1.364258 -0.4961,-0.186035 -0.5271,0.186035 -0.68212,0.682129 -0.15503,0.496094 v 12.27832 l -0.18604,0.5271 -0.68213,0.682129 h -0.34106 l -1.36426,-1.364258 -0.15503,-0.5271 v -12.27832 l 0.15503,-0.496094 0.34106,-0.341064 0.18604,-0.5271 v -6.13916 l 0.15503,-0.496094 0.5271,-0.186035 h 1.36426 l 0.49609,0.186035 0.68213,0.682129 0.18603,0.496094 0.15503,0.5271 1.70533,1.705322 0.18603,0.496094 0.15503,0.527099 0.34106,0.341065 0.18604,0.496094 0.15503,0.527099 1.02319,1.023194 0.18604,0.496093 0.15503,0.5271 2.72851,2.728516 0.5271,0.155029 h 0.68213 l 0.49609,-0.155029 0.18604,-0.5271 v -2.046387 l 0.15503,-0.496094 0.34106,-0.341064 0.18604,-0.5271 v -6.821289 l 0.15503,-0.496093 0.34106,-0.341065 0.18604,-0.5271 0.15503,-0.496093 0.5271,-0.186035 h 1.36425 l 0.4961,0.186035 0.18603,0.496093 0.15503,0.5271 0.34107,0.341065 0.18603,0.496093 -0.18603,0.5271 z" />
    <path
       id="path7246"
       style="font-size:31.75px;text-align:center;text-anchor:middle;stroke-width:0.26458332"
       d="m 149.90368,56.361418 -0.15503,0.496094 -0.18604,0.527099 -2.72851,2.728516 -0.49609,0.155029 -0.5271,0.186035 -1.0232,1.023194 -0.49609,0.155029 h -2.04639 l -0.5271,-0.155029 -1.02319,-1.023194 -0.4961,-0.186035 -0.52709,-0.155029 -3.41065,-3.410645 -0.15503,-0.527099 -0.18603,-0.496094 -1.0232,-1.023193 -0.15503,-0.5271 -0.18603,-0.496094 -1.02319,-1.023193 -0.15503,-0.5271 -0.18604,-0.496094 -0.34106,-0.341064 -0.15503,-0.5271 v -3.410644 l 0.15503,-0.496094 0.34106,-0.341064 0.18604,-0.5271 0.15503,-0.496094 2.04638,-2.046386 0.5271,-0.186036 0.4961,-0.155029 1.02319,-1.023193 0.5271,-0.186035 h 2.04638 l 0.4961,-0.15503 0.34106,-0.341064 0.5271,-0.186035 h 2.04639 l 0.49609,-0.15503 0.34107,-0.341064 0.5271,-0.186035 h 1.36426 l 0.49609,0.186035 0.34106,0.341064 0.5271,0.15503 0.4961,0.186035 0.68213,0.682129 0.18603,0.496093 -0.18603,0.5271 -0.68213,0.682129 -0.4961,0.155029 h -1.36425 l -0.5271,-0.155029 -0.34107,-0.341064 h -0.34106 l -0.34107,0.341064 -0.49609,0.155029 h -2.72852 l -0.5271,0.186035 -0.34106,0.341065 -0.4961,0.155029 -0.52709,0.186035 -0.34107,0.341065 -0.49609,0.155029 -0.5271,0.186035 -2.72852,2.728516 -0.15503,0.496094 v 2.046386 l 0.15503,0.5271 1.0232,1.023193 0.18603,0.496094 0.15503,0.5271 1.70532,1.705322 0.18604,0.496094 0.15503,0.527099 1.36425,1.364258 0.5271,0.155029 0.4961,0.186036 0.34106,0.341064 0.5271,0.155029 0.4961,0.186035 0.34106,0.341065 h 0.34106 l 0.34107,-0.341065 0.5271,-0.186035 0.49609,-0.155029 2.72852,-2.728516 0.18603,-0.527099 v -0.682129 l -0.18603,-0.496094 -0.4961,-0.186035 -0.5271,-0.155029 -0.34106,-0.341065 -0.49609,-0.186035 h -3.41065 l -0.5271,-0.155029 -0.68213,-0.682129 -0.15503,-0.5271 v -0.682129 l 0.15503,-0.496093 0.5271,-0.186036 h 4.09278 l 0.49609,0.186036 0.34106,0.341064 0.5271,0.155029 h 1.36426 l 0.4961,0.186036 0.68212,0.682128 0.18604,0.496094 0.15503,0.5271 0.34106,0.341064 0.18604,0.496094 v 2.046387 l -0.18604,0.527099 z" />
  </g>
</svg>
