<?xml version="1.0" encoding="UTF-8" standalone="no"?>
<svg
   xmlns:dc="http://purl.org/dc/elements/1.1/"
   xmlns:cc="http://creativecommons.org/ns#"
   xmlns:rdf="http://www.w3.org/1999/02/22-rdf-syntax-ns#"
   xmlns:svg="http://www.w3.org/2000/svg"
   xmlns="http://www.w3.org/2000/svg"
   id="svg14023"
   version="1.1"
   viewBox="0 0 270.93333 67.733335"
   height="256"
   width="1024">
  <defs
     id="defs14017" />
  <metadata
     id="metadata14020">
    <rdf:RDF>
      <cc:Work
         rdf:about="">
        <dc:format>image/svg+xml</dc:format>
        <dc:type
           rdf:resource="http://purl.org/dc/dcmitype/StillImage" />
        <dc:title />
      </cc:Work>
    </rdf:RDF>
  </metadata>
  <g
     transform="matrix(-0.125,0,0,0.125,271.09292,39.075001)"
     id="layer1">
    <g
       transform="translate(22.199066,-67.172763)"
       id="g15588">
      <path
         style="fill:#3771c8;fill-opacity:1;stroke:none;stroke-width:0.26458332px;stroke-linecap:butt;stroke-linejoin:miter;stroke-opacity:1"
         d="M 5.6126599,295.12908 158.7581,295.39637 158.49083,38.550353 309.94048,38.842241 308.6963,-36.552387 c 0,0 -2.93997,-21.381561 -14.43254,-33.408689 -11.4926,-12.02713 -38.77012,-23.056686 -59.06658,-26.459685 -44.63401,-7.483549 -110.11504,-8.018079 -155.016324,0.534541 -12.602359,2.400449 -36.081384,9.354433 -51.048477,27.796029 -14.967094,18.441598 -21.6488324,34.2105 -21.3815627,43.832203 0.2672693,9.621702 -2.1381564,319.387068 -2.1381564,319.387068 z"
         id="path14197" />
      <circle
         style="fill:#ffffff;fill-opacity:1;stroke:none;stroke-width:0.79374999;stroke-miterlimit:4;stroke-dasharray:none;stroke-opacity:1"
         id="path14199"
         cx="243.79465"
         cy="-28.815496"
         r="30.238094" />
      <path
         style="fill:#000000;fill-opacity:1;stroke:none;stroke-width:0.26458332px;stroke-linecap:butt;stroke-linejoin:miter;stroke-opacity:1"
         d="M 81.517206,-89.204479 218.3592,-90.006296 c 0,0 13.09621,4.543587 27.79603,4.276317 14.69982,-0.26727 24.85607,-2.40543 29.93419,-5.078117 5.07813,-2.6727 5.34538,-2.6727 4.81084,-9.087167 -0.53453,-6.414467 -12.02711,-9.888977 -18.17432,-9.621707 -6.1472,0.26727 -13.89801,-1.60361 -13.89801,-1.60361 0,0 -2.6727,-19.51068 -10.42351,-42.22859 -7.75082,-22.71791 -22.45064,-35.81411 -34.74504,-49.17759 -12.2944,-13.36348 -20.04522,-13.63075 -20.04522,-13.63075 0,0 9.88897,-5.61266 9.35444,-13.36347 -0.53454,-7.75082 -10.15625,-13.36348 -18.70887,-13.09621 -8.55262,0.26727 -12.6953,1.06908 -15.23436,3.34087 -2.53906,2.27179 -2.53906,4.00904 -2.53906,4.00904 0,0 -2.00453,-1.73725 -4.67722,-1.60362 -2.6727,0.13364 -6.1472,1.73726 -6.1472,1.73726 0,0 -5.47902,-6.54811 -7.34991,-7.21628 -1.87089,-0.66817 -4.27631,-2.27179 -10.02261,-2.00452 -5.74629,0.26727 -16.70434,4.40995 -16.43707,12.82894 0.26726,8.41899 6.68173,13.36347 9.35443,14.56618 2.6727,1.20272 -16.43708,7.34992 -22.183371,14.29893 -5.746295,6.949 -27.127858,28.73147 -32.740517,47.17307 -5.612659,18.44159 -9.888972,29.93418 -10.156243,41.96131 -0.267269,12.02713 -1.336347,12.02713 -1.336347,12.02713 0,0 -18.174327,3.207237 -30.201456,10.156244 -12.027128,6.949007 -24.85606551,14.165281 -24.32152649,23.519716 0.53453905,9.354431 15.50163249,10.156241 22.98517849,8.552625 7.483547,-1.603619 24.321527,-5.879931 33.408691,-11.225321 9.087165,-5.345389 14.165284,-6.949009 18.174327,-10.958046 4.009043,-4.009047 6.68174,-7.750817 6.68174,-7.750817 z"
         id="path14172" />
      <path
         style="fill:#000000;fill-opacity:1;stroke:none;stroke-width:0.26458332px;stroke-linecap:butt;stroke-linejoin:miter;stroke-opacity:1"
         d="m 304.45982,56.22915 c 0,0 -8.31548,10.205349 -19.2768,12.095241 -10.96129,1.889866 -13.04017,3.023817 -25.1354,2.456842 -12.09524,-0.566976 -16.44197,-3.96875 -24.19048,-3.96875 -7.74851,0 -12.28423,0.188992 -18.33184,-5.669651 -6.04762,-5.858615 -15.11905,-16.819932 -16.06399,-22.86754 -0.94494,-6.047634 -2.26786,-8.882459 -1.13393,-10.772325 1.13393,-1.889892 4.7247,-2.834825 7.55952,-0.188992 2.83482,2.645833 3.77976,6.614583 7.37054,6.614583 3.59077,0 15.68601,-4.157741 19.27678,-7.37055 3.59078,-3.212783 13.79613,-9.449393 20.41072,-10.961299 6.61458,-1.511906 12.8512,-4.535715 18.52082,-3.779761 5.66965,0.755952 17.5759,3.401785 23.62351,10.205361 6.04763,6.803575 12.85121,16.819932 12.85121,16.819932 L 309.5625,12.005935 c 0,0 11.90625,1.511906 16.25298,4.535715 4.34671,3.023809 8.31546,6.614583 13.41816,8.693441 5.10267,2.078884 7.18153,3.96875 10.01636,3.212809 2.83482,-0.755941 4.34673,-6.992567 8.69344,-6.425591 4.34673,0.566949 3.4018,3.590766 3.77978,5.291666 0.37796,1.700901 -3.21281,11.90625 -6.04763,15.119032 -2.83483,3.212809 -7.18154,10.583334 -11.71726,11.717285 -4.53573,1.133925 -12.66219,3.401774 -19.27678,2.645833 -6.61458,-0.755967 -20.22173,-0.566975 -20.22173,-0.566975 z"
         id="path14174" />
    </g>
  </g>
  <g
     aria-label="The Data"
     style="font-style:normal;font-variant:normal;font-weight:normal;font-stretch:normal;font-size:31.75px;line-height:1.25;font-family:'Humor Sans';-inkscape-font-specification:'Humor Sans';text-align:center;letter-spacing:0px;word-spacing:0px;text-anchor:middle;fill:#000000;fill-opacity:1;stroke:none;stroke-width:0.26458332"
     id="text1033"
     transform="translate(-55.428544,-1.625e-6)">
    <path
       d="m 74.97464,27.308929 -0.341065,0.341065 -0.496093,0.155029 -0.5271,0.186035 -0.341064,0.341065 -0.496094,0.155029 h -4.774902 l -0.5271,0.186035 -0.155029,0.496094 v 10.914063 l -0.186036,0.527099 -0.341064,0.341065 -0.155029,0.496093 v 3.410645 l -0.186035,0.527099 -0.682129,0.682129 h -0.341065 l -0.341064,-0.341064 -0.496094,-0.186035 -0.5271,-0.15503 -0.155029,-0.527099 v -5.457031 l 0.155029,-0.496094 0.341065,-0.341065 0.186035,-0.527099 V 29.85141 l -0.186035,-0.496094 -0.682129,-0.682129 -0.496094,-0.186035 h -3.410644 l -0.5271,-0.155029 -0.155029,-0.5271 -0.186035,-0.496094 -0.341065,-0.341064 v -0.341064 l 0.682129,-0.682129 0.5271,-0.186036 h 2.046386 l 0.496094,-0.155029 0.341065,-0.341064 0.527099,-0.186035 h 11.596192 l 0.496093,0.186035 0.186036,0.496093 v 0.682129 l -0.186036,0.5271 z"
       style="font-size:31.75px;text-align:center;text-anchor:middle;stroke-width:0.26458332"
       id="path1035" />
    <path
       d="m 94.167267,34.130219 -0.155029,0.496093 v 7.503418 l -0.186036,0.5271 -0.496093,0.155029 -0.5271,0.186035 -0.341064,0.341065 H 92.12088 l -0.155029,-0.5271 -0.186035,-0.496094 -0.341065,-0.341064 -0.155029,-0.5271 v -4.092773 l -0.186035,-0.496094 -0.496094,-0.186035 h -2.728516 l -0.527099,0.186035 -0.341065,0.341065 -0.496093,0.155029 h -4.092774 l -0.527099,0.186035 -0.341065,0.341064 -0.496094,0.15503 -0.527099,0.186035 -0.682129,0.682129 -0.155029,0.496094 v 4.774902 l -0.186036,0.5271 -0.496093,0.155029 -0.5271,0.186035 -0.341064,0.341064 H 77.796173 L 77.641144,44.858246 V 30.533539 l 0.155029,-0.496094 0.341065,-0.341064 0.186035,-0.5271 v -4.092773 l 0.155029,-0.496094 0.5271,-0.186035 h 0.682129 l 0.496093,0.186035 0.186035,0.496094 v 5.457031 l -0.186035,0.527099 -0.341064,0.341065 -0.155029,0.496094 v 2.046386 l 0.155029,0.5271 0.682129,0.682129 0.527099,0.155029 h 2.728516 l 0.496094,-0.155029 0.341064,-0.341065 0.5271,-0.186035 h 4.092773 l 0.496094,-0.155029 0.341064,-0.341064 0.5271,-0.186036 0.496094,-0.155029 0.682129,-0.682129 0.186035,-0.527099 v -6.139161 l 0.155029,-0.496093 0.5271,-0.186036 0.496093,0.186036 0.682129,0.682129 0.186036,0.496093 v 5.457032 l 0.155029,0.527099 0.341064,0.341065 v 0.341064 z"
       style="font-size:31.75px;text-align:center;text-anchor:middle;stroke-width:0.26458332"
       id="path1037" />
    <path
       d="m 113.88699,23.898285 -1.02319,1.023193 -0.49609,0.15503 h -6.13916 l -0.5271,0.186035 -0.34107,0.341064 -0.49609,0.155029 h -2.04639 l -0.5271,0.186036 -1.36426,1.364257 -0.15503,0.496094 v 1.364258 l 0.15503,0.5271 0.68213,0.682129 0.5271,0.155029 h 6.82129 l 0.4961,0.186035 0.68212,0.682129 v 0.341064 l -1.36425,1.364258 -0.4961,0.155029 h -0.68213 l -0.5271,0.186036 -0.34106,0.341064 -0.49609,0.155029 h -2.04639 l -0.5271,-0.155029 -0.34106,-0.341064 -0.4961,-0.186036 h -1.36426 l -0.5271,0.186036 -0.15503,0.496093 -0.18603,0.5271 -0.34106,0.341064 -0.15503,0.496094 v 2.728516 l 0.15503,0.527099 0.52709,0.15503 0.4961,0.186035 0.34106,0.341064 0.5271,0.15503 0.4961,-0.15503 0.34106,-0.341064 0.5271,-0.186035 h 7.50342 l 0.49609,0.186035 0.18604,0.496094 -0.18604,0.527099 -1.36426,1.364258 -0.49609,0.155029 h -2.72851 l -0.5271,0.186035 -0.34107,0.341065 -0.49609,0.155029 h -5.45703 l -0.527104,0.186035 -0.341064,0.341065 -0.496094,0.155029 H 98.042999 L 97.5159,42.65683 l -0.682129,-0.682129 -0.15503,-0.5271 v -2.728515 l 0.15503,-0.496094 0.341064,-0.341065 0.186035,-0.527099 v -3.410645 l 0.15503,-0.496093 0.341064,-0.341065 0.186035,-0.527099 v -4.774903 l -0.186035,-0.496094 -0.341064,-0.341064 -0.15503,-0.5271 v -0.682129 l 0.15503,-0.496093 1.364257,-1.364258 0.5271,-0.186035 0.496094,-0.15503 0.341069,-0.341064 0.52709,-0.186035 h 2.72852 l 0.49609,-0.155029 0.34107,-0.341065 0.5271,-0.186035 h 8.18555 l 0.49609,0.186035 0.68213,0.682129 v 0.341064 z"
       style="font-size:31.75px;text-align:center;text-anchor:middle;stroke-width:0.26458332"
       id="path1039" />
    <path
       d="m 146.04007,36.672699 v -5.457031 l -0.18604,-0.496094 -2.04638,-2.046387 -0.4961,-0.186035 -0.5271,-0.155029 -1.02319,-1.023194 -0.49609,-0.186035 h -2.04639 l -0.5271,0.186035 -0.34106,0.341065 -0.4961,0.155029 h -1.36426 l -0.52709,0.186035 -0.34107,0.341065 -0.49609,0.155029 -0.5271,0.186035 -0.15503,0.496094 v 2.046387 l 0.15503,0.527099 0.34106,0.341065 0.18604,0.496094 v 4.092773 l 0.15503,0.5271 0.34106,0.341064 0.18604,0.496094 v 3.410644 l 0.15503,0.5271 0.52709,0.155029 h 2.04639 l 0.4961,-0.155029 0.34106,-0.341065 0.5271,-0.186035 h 0.68213 l 0.49609,-0.155029 0.34107,-0.341064 0.5271,-0.186036 0.49609,-0.155029 0.34106,-0.341064 0.5271,-0.186035 0.4961,-0.15503 0.68213,-0.682129 0.18603,-0.527099 0.15503,-0.496094 1.02319,-1.023193 z m 2.88354,-2.54248 -0.15502,0.496093 v 2.046387 l -0.18604,0.5271 -0.34106,0.341064 -0.15503,0.496094 -0.18604,0.527099 -1.02319,1.023194 -0.15503,0.496094 -0.18604,0.527099 -0.49609,0.155029 -0.5271,0.186036 -1.70532,1.705322 -0.4961,0.155029 -0.5271,0.186035 -1.02319,1.023194 -0.49609,0.155029 h -2.04639 l -0.5271,0.186035 -0.34106,0.341065 -0.4961,0.155029 h -0.68213 l -0.5271,0.186035 -0.34106,0.341064 -0.49609,0.15503 h -2.72852 l -0.5271,-0.15503 -0.15503,-0.527099 v -9.549805 l -0.18603,-0.496094 -0.34107,-0.341064 -0.15503,-0.5271 v -6.821289 l 0.15503,-0.496093 1.36426,-1.364258 0.5271,-0.186035 h 4.09277 l 0.4961,-0.15503 0.34106,-0.341064 0.5271,-0.186035 h 2.72852 l 0.49609,0.186035 0.34106,0.341064 0.5271,0.15503 h 0.68213 l 0.4961,0.186035 1.70532,1.705322 0.5271,0.155029 0.49609,0.186035 0.18604,0.496094 0.15503,0.5271 1.02319,1.023193 0.18604,0.496094 v 0.682129 l 0.15502,0.527099 0.34107,0.341065 0.18603,0.496094 v 1.364257 l -0.18603,0.5271 z"
       style="font-size:31.75px;text-align:center;text-anchor:middle;stroke-width:0.26458332"
       id="path1041" />
    <path
       d="m 163.03128,31.897797 v -0.682129 l -0.18603,-0.496094 -1.0232,-1.023193 -0.15503,-0.5271 v -0.682129 l -0.18603,-0.496094 -0.34107,-0.341064 -0.15503,-0.5271 -0.18603,-0.496093 -1.36426,-1.364258 -0.49609,-0.186035 -0.5271,0.186035 -0.34107,0.341064 -0.49609,0.155029 -0.5271,0.186036 -0.15503,0.496093 v 0.682129 l -0.18603,0.5271 -0.34107,0.341064 -0.15503,0.496094 v 2.046387 l -0.18603,0.527099 -0.34107,0.341065 -0.15503,0.496094 v 0.682129 l 0.15503,0.527099 0.68213,0.682129 0.5271,0.155029 h 1.36426 l 0.49609,-0.155029 0.34107,-0.341064 0.5271,-0.186036 0.49609,-0.155029 0.34106,-0.341064 0.5271,-0.186035 h 1.36426 l 0.4961,-0.15503 z m 3.56567,11.782226 -0.34106,0.341065 h -0.34106 l -0.68213,-0.682129 -0.15503,-0.5271 -0.18604,-0.496094 -0.34106,-0.341064 -0.15503,-0.5271 v -0.682129 l -0.18604,-0.496093 -0.34106,-0.341065 -0.15503,-0.527099 v -1.364258 l -0.18604,-0.496094 -0.34106,-0.341064 -0.15503,-0.5271 -0.18603,-0.496094 -0.4961,-0.186035 h -1.36426 l -0.5271,0.186035 -0.34106,0.341065 -0.49609,0.155029 h -0.68213 l -0.5271,0.186035 -0.34107,0.341065 -0.49609,0.155029 h -1.36426 l -0.5271,0.186035 -0.68213,0.682129 -0.15503,0.496094 v 1.364258 l -0.18603,0.527099 -0.34107,0.341065 -0.15503,0.496093 v 2.728516 l -0.18603,0.5271 -0.49609,0.155029 h -0.68213 l -0.5271,-0.155029 -0.68213,-0.682129 -0.15503,-0.5271 V 42.12973 l 0.15503,-0.496094 0.34106,-0.341064 0.18604,-0.5271 v -8.185546 l 0.15503,-0.496094 0.34106,-0.341065 0.18604,-0.527099 V 29.85141 l 0.15503,-0.496094 0.34106,-0.341064 0.18604,-0.5271 v -1.364258 l 0.15503,-0.496093 0.34106,-0.341065 0.18603,-0.5271 0.15503,-0.496093 3.41065,-3.410645 0.5271,-0.186035 h 2.04638 l 0.4961,0.186035 1.36426,1.364258 0.18603,0.496094 0.15503,0.527099 1.02319,1.023194 0.18604,0.496093 0.15503,0.5271 0.34106,0.341065 0.18604,0.496093 0.15503,0.5271 0.34106,0.341064 0.18604,0.496094 v 0.682129 l 0.15503,0.5271 0.34106,0.341064 0.18604,0.496094 v 2.728515 l 0.15503,0.5271 0.34106,0.341065 0.18604,0.496093 v 2.046387 l 0.15502,0.5271 0.34107,0.341064 0.18603,0.496094 v 4.774902 l -0.18603,0.5271 z"
       style="font-size:31.75px;text-align:center;text-anchor:middle;stroke-width:0.26458332"
       id="path1043" />
    <path
       d="m 186.84378,27.805023 -0.5271,0.186035 -0.34106,0.341065 -0.4961,0.155029 h -4.7749 l -0.5271,0.186035 -0.68213,0.682129 -0.15503,0.496094 v 12.27832 l -0.18603,0.5271 -0.34107,0.341064 -0.15503,0.496094 -0.18603,0.5271 -0.4961,0.155029 h -0.68212 l -0.5271,-0.155029 -0.68213,-0.682129 -0.15503,-0.5271 V 42.12973 l 0.15503,-0.496094 0.34106,-0.341064 0.18604,-0.5271 V 29.169281 l -0.18604,-0.496094 -0.68213,-0.682129 -0.49609,-0.186035 h -0.68213 l -0.5271,0.186035 -0.34106,0.341065 -0.4961,0.155029 h -1.36426 l -0.5271,-0.155029 -0.34106,-0.341065 -0.49609,-0.186035 -0.5271,-0.155029 -0.68213,-0.682129 -0.15503,-0.5271 v -0.682129 l 0.15503,-0.496093 0.5271,-0.186035 h 17.05322 l 0.49609,0.186035 0.18604,0.496093 v 1.364258 l -0.18604,0.5271 z"
       style="font-size:31.75px;text-align:center;text-anchor:middle;stroke-width:0.26458332"
       id="path1045" />
    <path
       d="m 201.10648,31.897797 v -0.682129 l -0.18604,-0.496094 -1.02319,-1.023193 -0.15503,-0.5271 v -0.682129 l -0.18604,-0.496094 -0.34106,-0.341064 -0.15503,-0.5271 -0.18604,-0.496093 -1.36425,-1.364258 -0.4961,-0.186035 -0.5271,0.186035 -0.34106,0.341064 -0.4961,0.155029 -0.5271,0.186036 -0.15502,0.496093 v 0.682129 l -0.18604,0.5271 -0.34106,0.341064 -0.15503,0.496094 v 2.046387 l -0.18604,0.527099 -0.34106,0.341065 -0.15503,0.496094 v 0.682129 l 0.15503,0.527099 0.68213,0.682129 0.5271,0.155029 h 1.36425 l 0.4961,-0.155029 0.34106,-0.341064 0.5271,-0.186036 0.4961,-0.155029 0.34106,-0.341064 0.5271,-0.186035 h 1.36426 l 0.49609,-0.15503 z m 3.56567,11.782226 -0.34106,0.341065 h -0.34107 l -0.68213,-0.682129 -0.15503,-0.5271 -0.18603,-0.496094 -0.34107,-0.341064 -0.15503,-0.5271 v -0.682129 l -0.18603,-0.496093 -0.34107,-0.341065 -0.15503,-0.527099 v -1.364258 l -0.18603,-0.496094 -0.34106,-0.341064 -0.15503,-0.5271 -0.18604,-0.496094 -0.49609,-0.186035 h -1.36426 l -0.5271,0.186035 -0.34106,0.341065 -0.4961,0.155029 h -0.68213 l -0.5271,0.186035 -0.34106,0.341065 -0.4961,0.155029 h -1.36425 l -0.5271,0.186035 -0.68213,0.682129 -0.15503,0.496094 v 1.364258 l -0.18604,0.527099 -0.34106,0.341065 -0.15503,0.496093 v 2.728516 l -0.18604,0.5271 -0.49609,0.155029 h -0.68213 l -0.5271,-0.155029 -0.68213,-0.682129 -0.15503,-0.5271 V 42.12973 l 0.15503,-0.496094 0.34107,-0.341064 0.18603,-0.5271 v -8.185546 l 0.15503,-0.496094 0.34107,-0.341065 0.18603,-0.527099 V 29.85141 l 0.15503,-0.496094 0.34107,-0.341064 0.18603,-0.5271 v -1.364258 l 0.15503,-0.496093 0.34106,-0.341065 0.18604,-0.5271 0.15503,-0.496093 3.41064,-3.410645 0.5271,-0.186035 h 2.04639 l 0.49609,0.186035 1.36426,1.364258 0.18604,0.496094 0.15503,0.527099 1.02319,1.023194 0.18603,0.496093 0.15503,0.5271 0.34107,0.341065 0.18603,0.496093 0.15503,0.5271 0.34107,0.341064 0.18603,0.496094 v 0.682129 l 0.15503,0.5271 0.34107,0.341064 0.18603,0.496094 v 2.728515 l 0.15503,0.5271 0.34107,0.341065 0.18603,0.496093 v 2.046387 l 0.15503,0.5271 0.34106,0.341064 0.18604,0.496094 v 4.774902 l -0.18604,0.5271 z"
       style="font-size:31.75px;text-align:center;text-anchor:middle;stroke-width:0.26458332"
       id="path1047" />
  </g>
</svg>
